<svg xmlns="http://www.w3.org/2000/svg" xmlns:xlink="http://www.w3.org/1999/xlink" width="419.228" height="347.506" viewBox="0 0 419.228 347.506"><defs><linearGradient id="a" x1="-29.813" y1="3.039" x2="-29.813" y2="4.039" gradientUnits="objectBoundingBox"><stop offset="0" stop-color="gray" stop-opacity="0.251"/><stop offset="0.54" stop-color="gray" stop-opacity="0.122"/><stop offset="1" stop-color="gray" stop-opacity="0.102"/></linearGradient></defs><g transform="translate(-42.772 0)"><path d="M787.194,145.142H587.685a4.393,4.393,0,0,0-4.388,4.388V483.6a4.39,4.39,0,0,0,4.388,4.388H787.194a4.378,4.378,0,0,0,4.33-3.7,3.768,3.768,0,0,0,.058-.685V149.53a4.393,4.393,0,0,0-4.388-4.388ZM789.827,483.6a2.633,2.633,0,0,1-2.633,2.633H587.685a2.633,2.633,0,0,1-2.633-2.633V149.53a2.637,2.637,0,0,1,2.633-2.633H787.194a2.637,2.637,0,0,1,2.633,2.633Z" transform="translate(-361.731 -145.142)" fill="#e6e6e6"/><path d="M617.682,188.772a1.757,1.757,0,0,0-1.755,1.755v72.549a1.757,1.757,0,0,0,1.755,1.755H785.6a1.757,1.757,0,0,0,1.755-1.755V190.527a1.757,1.757,0,0,0-1.755-1.755Z" transform="translate(-375.931 -164.129)" fill="#e6e6e6"/><text transform="translate(328 77)" fill="#fff" font-size="40" font-family="Merriweather-Bold, Merriweather" font-weight="700" letter-spacing="0.2em"><tspan x="-44.48" y="0">JOB</tspan></text><path d="M493.553,289.272a1.7,1.7,0,0,0-1.694,1.694V361a1.7,1.7,0,0,0,1.694,1.694h162.1A1.7,1.7,0,0,0,657.351,361V290.966a1.7,1.7,0,0,0-1.694-1.694Z" transform="translate(-321.939 -207.865)" fill="#31b781"/><path d="M636.6,350.4a1.923,1.923,0,1,0,0,3.846H688.53a1.923,1.923,0,1,0,.063-3.846h-52Z" transform="translate(-384.089 -234.465)" fill="#fff"/><path d="M636.6,330.67a1.923,1.923,0,1,0,0,3.846h25.934a1.923,1.923,0,1,0,.063-3.846h-26Z" transform="translate(-384.089 -225.88)" fill="#fff"/><path d="M636.6,371.064a1.923,1.923,0,1,0,0,3.846H688.53a1.923,1.923,0,0,0,.063-3.846h-52Z" transform="translate(-384.089 -243.459)" fill="#fff"/><circle cx="4.095" cy="4.095" r="4.095" transform="translate(264.156 173.836)" fill="#e6e6e6"/><path d="M694.2,456.411a2.121,2.121,0,1,0,0,4.241h99.976a2.121,2.121,0,1,0,.07-4.241H694.2Z" transform="translate(-409.071 -280.6)" fill="#e6e6e6"/><circle cx="4.095" cy="4.095" r="4.095" transform="translate(264.156 193.728)" fill="#e6e6e6"/><path d="M694.2,491.63a2.121,2.121,0,1,0,0,4.242h99.976a2.121,2.121,0,1,0,.07-4.241H694.2Z" transform="translate(-409.071 -295.927)" fill="#e6e6e6"/><circle cx="4.095" cy="4.095" r="4.095" transform="translate(264.156 213.621)" fill="#e6e6e6"/><path d="M694.2,526.849a2.121,2.121,0,1,0,0,4.241h99.976a2.121,2.121,0,1,0,.07-4.241H694.2Z" transform="translate(-409.071 -311.253)" fill="#e6e6e6"/><circle cx="4.095" cy="4.095" r="4.095" transform="translate(264.156 233.513)" fill="#e6e6e6"/><path d="M694.2,562.068a2.121,2.121,0,1,0,0,4.241h99.976a2.121,2.121,0,0,0,.07-4.241H694.2Z" transform="translate(-409.071 -326.58)" fill="#e6e6e6"/><circle cx="4.095" cy="4.095" r="4.095" transform="translate(264.156 253.406)" fill="#e6e6e6"/><path d="M694.2,597.287a2.121,2.121,0,1,0,0,4.242h99.976a2.121,2.121,0,1,0,.07-4.241H694.2Z" transform="translate(-409.071 -341.907)" fill="#e6e6e6"/><circle cx="4.095" cy="4.095" r="4.095" transform="translate(264.156 273.298)" fill="#e6e6e6"/><path d="M694.2,632.506a2.121,2.121,0,1,0,0,4.242h99.976a2.121,2.121,0,1,0,.07-4.241H694.2Z" transform="translate(-409.071 -357.233)" fill="#e6e6e6"/><circle cx="4.095" cy="4.095" r="4.095" transform="translate(264.156 293.19)" fill="#e6e6e6"/><path d="M694.2,667.725a2.121,2.121,0,1,0,0,4.242h99.976a2.121,2.121,0,1,0,.07-4.241H694.2Z" transform="translate(-409.071 -372.56)" fill="#e6e6e6"/><path d="M980.373,569.037c-.088,2.159-2.27,46.724-32.208,71.074q-1.878,1.527-3.9,2.943l-1.018-.995h.591a2.633,2.633,0,0,0,2.633-2.633V551.584c.626-3.37,1.217-6.682,1.755-9.905,2.919-17.523,4.271-32.325,2.083-38.474.948,2.375,19.974,50.96,9.642,100.462C970.182,589.655,979.893,574.946,980.373,569.037Z" transform="translate(-518.373 -300.964)" fill="#e6e6e6"/><g transform="translate(-20.479 13.736)"><path d="M301.547,310.818c.536,1.719,1.01,3.359,1.409,4.768l-.249.089C302.4,314.369,302,312.678,301.547,310.818Zm-14.864-41.858-.075.042.07-.066Z" transform="translate(-167.363 -203.189)" fill="url(#a)"/><path d="M251.176,692.244c-2.8.9-4.9,18.082-4.9,18.082l17.382,4.294s12.191,1.8,17.984,0,5.6-6.793-2.7-7.592-14.188-11.486-14.188-11.486S253.971,691.346,251.176,692.244Z" transform="translate(-150.075 -384.605)" fill="#2f2e41"/><path d="M217.284,697.524a10.469,10.469,0,0,1-.677,4.036,35.263,35.263,0,0,0-1.748,13.084q.056.794.127,1.663c.6,6.892,17.274,2.6,18.383,1.8s-3.289-20.582-3.289-20.582S217.007,694.728,217.284,697.524Z" transform="translate(-136.582 -386.39)" fill="#2f2e41"/><path d="M251.091,242.14a.051.051,0,0,1,.009.019c.352.864,13.445,32.97,11.078,22.47a6.42,6.42,0,0,1-.141-.949c-.2-2.579,1.015-5.417,2.974-8.235a40.592,40.592,0,0,1,4.148-4.961c.756-.785,1.541-1.55,2.335-2.293,2.18-2.044,4.449-3.913,6.46-5.473,3.613-2.819,6.4-4.609,6.4-4.609s-25.322-29.522-23.527-16.786c.493,3.491,2.551,6.972,1.156,10.2a17.634,17.634,0,0,1-3.824,5.464,28.937,28.937,0,0,1-4.139,3.4c-.634.427-1.207.785-1.672,1.057C251.575,241.9,251.091,242.14,251.091,242.14Z" transform="translate(-152.138 -181.41)" fill="#ffb9b9"/><path d="M402.567,324.286s1-.554,2.5-1.217c4.421-1.926,13.248-4.745,14.362,3.016C420.926,336.5,411,335.3,411,335.3a46.372,46.372,0,0,0-6.018-1.827,7.73,7.73,0,0,0-3.087-.193Z" transform="translate(-216.787 -225.485)" fill="#ffb9b9"/><path d="M400.424,335.585h2.988c1.738-2.349.409-11.275.409-11.275l-2.6.47Z" transform="translate(-216.156 -226.928)" fill="#e6e6e6"/><path d="M306.959,361.891l.5,26.271,3.289,12.388s1.616,11.989,3.6,10.988,10.439,1.846,10.439,1.846l.4-4.444-2.847-26.121-2.2-13.037s-1.25-10.242-2.2-16.236-8.888-1.245-8.888-1.245Z" transform="translate(-176.088 -238.163)" fill="#2f2e41"/><path d="M321.244,327.109c5.4-1.513,12.365,0,12.365,0l31.476.7a13.542,13.542,0,0,0,1.724-14.385s-15.437-.606-27.948-2.476-20.751-11.162-20.751-11.162Z" transform="translate(-180.868 -216.412)" fill="#535461"/><path d="M268.07,221.324C266.275,208.588,291.6,238.11,291.6,238.11s-2.791,1.79-6.4,4.609c-.334.023-.667.023-1.01.023-7.747,0-13.088-4.848-16.161-11.425C269.258,228.389,268.624,225.223,268.07,221.324Z" transform="translate(-159.377 -181.411)" opacity="0.1"/><path d="M264.4,217.632a17.312,17.312,0,1,1,0,.084Q264.4,217.674,264.4,217.632Z" transform="translate(-157.845 -173.788)" fill="#ffb9b9"/><path d="M246.227,317.66l.94-57.507,10.039,5.257,8.329,1.973,2.109-1.231.15-.089.343-.2s.113.244.329.691c1.823,3.857,10.692,22.719,10.5,24.335-.2,1.795,6.328,24.419,6.328,24.419h0l-3.147,21.428s5.971,14.883,4.393,20.38-44.63,1.7-44.63,1.7Z" transform="translate(-148.204 -199.424)" fill="#e6e6e6"/><path d="M278.894,273.442l3.345,4.294.54,1.254a40.445,40.445,0,0,1,3.2,13.953v5.572l.7,44.654,3.848,6.864.7-8.494-1.546-47.8-2.1-10.805-1.146-6.845a30.3,30.3,0,0,1-1.6-3.7,3.429,3.429,0,0,0-4.1-2.147Z" transform="translate(-164.057 -203.707)" fill="#2f2e41"/><path d="M253.122,255.354l.1.24.7,1.719.789,1.921a16.031,16.031,0,0,1,2.574,2.039c2.668,2.4,6.539,6.248,8.6,8.32.869.874,1.414,1.428,1.414,1.428,1.019-.907,2.044-3.937,2.734-6.389.113-.39.211-.766.305-1.113.348-1.329.559-2.288.559-2.288-2.617-.935-8.724-6.906-11.862-10.091a28.934,28.934,0,0,1-4.139,3.4C254.715,254.039,253.122,255.354,253.122,255.354Z" transform="translate(-153.008 -195.56)" fill="#e6e6e6"/><path d="M289.845,271.554a19.134,19.134,0,0,0,8.677,2.936s7.653,4.05,9.072,17.908,7.413,55.515,7.413,55.515,5.337,28.089,1.579,31.006l-4.2-34.384s-7.343-19.858-7.874-23.532c-.47-3.345-6.309-21.634-7.333-24.838-.1-.3-.155-.47-.155-.47l-5.839-16.513-3.373-9.039a18.323,18.323,0,0,0,2.029,1.409Z" transform="translate(-167.882 -203.707)" fill="#535461"/><path d="M216.045,523.541s5.891-40.665,4.294-46.152,1.1-46.04,1.1-46.04l.888-7.606.5-4.289.211-1.795,1.029.315a151.79,151.79,0,0,0,30.438,5.581,23.218,23.218,0,0,0,6.812-.545c4.078-.93,11.961-2.072,13.337-3.049,0,0,.47,1.264,1.057,3.331,1.353,4.778,3.392,13.91,1.823,21.69l-2.4,15.733s-.944,16.034-4.045,25.627l-2.744,13.084-3.6,26.67a159.728,159.728,0,0,0-3.848,21.61C259.585,559.8,252.1,579.86,252.1,579.86s-15.907,2.2-16.377-3.195l5.5-42.06,5.093-60.237s-5.52,37.583-8.691,45.678c0,0-4.4,46.138-5.9,53.246s-2.495,8.987-2.495,8.987-9.292,3.4-13.488-2.894c0,0-1.2-18.674-2.1-25.369S216.045,523.541,216.045,523.541Z" transform="translate(-136.019 -266.946)" fill="#2f2e41"/><path d="M227.84,443.686l6.577,3.2-7.841,14.784c-2.946-2.748-2.6-13.685-2.6-13.685Z" transform="translate(-140.509 -278.104)" fill="#ffb9b9"/><path d="M122.3,281.765l3,2.349L121.3,290.16l-5.445,2-.451-4Z" transform="translate(-32.141 -116.182)" fill="#e6e6e6"/><g transform="translate(138.346 153.002)" opacity="0.1"><path d="M320.333,421.735a.143.143,0,0,1-.028-.07,2.479,2.479,0,0,1-.263.15Z" transform="translate(-320.042 -421.665)"/></g><path d="M190.906,369.212c3.594,4.2,19.261,4.947,19.261,4.947l12.21-19.243,3.293-5.187s3.669-2.546,10.566-14.014,6.662-20.3,6.281-26.9-4.7-25.552-4.7-25.552a53.208,53.208,0,0,0-1.583-5.661c-1.5-4.726-3.768-11.294-5.623-16.555-.334-.949-.653-1.856-.958-2.7-.564-1.607,2.3-7.728,2.3-7.728-1.01,2.025-7.371,5.356-9.584,6.751-5.966,3.758-14.3,5.3-14.3,5.3-13.413,1.95-10.937,15.808-10.937,15.808s-.15,53.871.677,60.317S190.906,369.212,190.906,369.212Z" transform="translate(-126.337 -195.338)" fill="#535461"/><path d="M197.185,291.044s-5.694,24.73-7.268,40.012,4.346,25.021,4.346,25.021l12.661,28.1c4.346-1.118,13.187-10.335,13.187-10.335L207.426,338.7s4.7-17.744,7.644-34.088-4.853-23.678-4.853-23.678C197.18,275.992,197.185,291.044,197.185,291.044Z" transform="translate(-125.798 -207.905)" opacity="0.1"/><path d="M196.132,291.044s-5.694,24.73-7.268,40.012,4.346,25.021,4.346,25.021l12.684,28.1c4.346-1.118,13.187-10.335,13.187-10.335L206.4,338.7s4.707-17.744,7.639-34.088-4.867-23.678-4.867-23.678C196.132,275.992,196.132,291.044,196.132,291.044Z" transform="translate(-125.347 -207.905)" fill="#535461"/><path d="M237.272,449.263l-3.5,9.992-3.895,5.342s-2.917,1.95-3.646-1.7,9.137-17.335,9.137-17.335C236.934,444.95,237.272,449.263,237.272,449.263Z" transform="translate(-141.467 -278.883)" fill="#2f2e41"/><path d="M261.559,219.689s-18.086-24.785,4.689-30.143c0,0,6.47-9.705,14.42-4.932a24.915,24.915,0,0,0,12.877,3.425c3.852,0,7.536,1.507,6.866,7.536-1.34,12.057-8.708,10.048-8.708,10.048s-19.982-8.953-20.652,1.095A14.814,14.814,0,0,1,261.559,219.689Z" transform="translate(-153.705 -166.474)" fill="#2f2e41"/></g><rect width="34" height="34" rx="3" transform="translate(198 101)" fill="#fff"/><g transform="translate(203 106)"><path d="M15,6.5a1,1,0,0,1-1-1V4H10V5.5a1,1,0,0,1-2,0V4a2,2,0,0,1,2-2h4a2,2,0,0,1,2,2V5.5A1,1,0,0,1,15,6.5Z" fill="#e6e6e6"/><path d="M12.71,15.38a2.06,2.06,0,0,1-.71.12,2.191,2.191,0,0,1-.77-.14L0,11.62v7.63A2.748,2.748,0,0,0,2.75,22h18.5A2.748,2.748,0,0,0,24,19.25V11.62Z" fill="#e6e6e6"/><path d="M24,7.75v2.29L12.24,13.96a.74.74,0,0,1-.48,0L0,10.04V7.75A2.748,2.748,0,0,1,2.75,5h18.5A2.748,2.748,0,0,1,24,7.75Z" fill="#e6e6e6"/></g></g></svg>