<svg xmlns="http://www.w3.org/2000/svg" xmlns:xlink="http://www.w3.org/1999/xlink" width="306.318" height="360" viewBox="0 0 306.318 360"><defs><linearGradient id="a" x1="0.825" y1="1.045" x2="0.825" y2="0.098" gradientUnits="objectBoundingBox"><stop offset="0" stop-color="gray" stop-opacity="0.251"/><stop offset="0.54" stop-color="gray" stop-opacity="0.122"/><stop offset="1" stop-color="gray" stop-opacity="0.102"/></linearGradient><linearGradient id="b" x1="0.776" y1="1.061" x2="0.776" y2="0.169" xlink:href="#a"/><linearGradient id="c" x1="0.5" y1="1" x2="0.5" y2="0" xlink:href="#a"/><linearGradient id="d" x1="-0.381" y1="1.434" x2="-0.34" y2="2.438" gradientUnits="objectBoundingBox"><stop offset="0" stop-opacity="0.122"/><stop offset="0.55" stop-opacity="0.09"/><stop offset="1" stop-opacity="0.02"/></linearGradient><linearGradient id="e" x1="0.5" y1="1" x2="0.5" y2="0" xlink:href="#a"/></defs><g transform="translate(-67.97)"><path d="M530.824,381.541,309.95,363.429,334.292,62.28,555.166,80.392Z" transform="translate(-180.878 -34.185)" fill="url(#a)"/><path d="M532.194,382.473,317.27,364.844,340.958,71.81,555.882,89.435Z" transform="translate(-184.896 -39.416)" fill="#31b781"/><path d="M488.213,296.719,270.588,338.826,214,42.107,431.626,0Z" transform="translate(-128.213)" fill="url(#b)"/><path d="M489.014,298.846,277.253,339.82,222.19,51.09,433.951,10.12Z" transform="translate(-132.708 -5.555)" fill="#e0e0e0"/><rect width="221.605" height="302.146" transform="translate(112.092 22.411)" fill="url(#c)"/><rect width="215.636" height="294.004" transform="translate(115.078 26.48)" fill="#fff"/><path d="M613.246,194.643a35.373,35.373,0,1,0,46.943-34.113l.108,9.176a12.058,12.058,0,0,1-11.833,12.239h0a12.054,12.054,0,0,1-12.121-11.918l-.108-9.176A35.638,35.638,0,0,0,613.246,194.643Z" transform="translate(-425.503 -117.435)" fill="url(#d)"/><path d="M684.013,184.478a35.373,35.373,0,1,0-47.349,33.531v-9.176a12.054,12.054,0,0,1,11.977-12.063h0a12.054,12.054,0,0,1,11.977,12.063v9.18a35.638,35.638,0,0,0,23.395-33.536Z" transform="translate(-425.518 -111.019)" fill="#31b781"/><ellipse cx="13.597" cy="13.696" rx="13.597" ry="13.696" transform="translate(209.55 54.864)" fill="#fff" stroke="#fff" stroke-miterlimit="10" stroke-width="1"/><path d="M677.107,255.09h0a12.054,12.054,0,0,0-11.977,12.063v9.18a35.264,35.264,0,0,0,23.954,0v-9.18A12.054,12.054,0,0,0,677.107,255.09Z" transform="translate(-453.983 -169.338)" fill="#fff" stroke="#fff" stroke-miterlimit="10" stroke-width="1"/><path d="M659.539,186.9a13.366,13.366,0,0,1-1.448-6.9,9.238,9.238,0,0,1,3.013-6.248,12.5,12.5,0,0,1,7.258-2.508,66.658,66.658,0,0,0,7.777-.591,16.24,16.24,0,0,0,10.376-7.091,22.276,22.276,0,0,1-.059,6.027,7.374,7.374,0,0,1-3.1,4.962c2.066-.961,1.841,1.295,1.394,2.644,1.024,1.245,3.51,1.453,3.636,3.063a10.218,10.218,0,0,1-.519,4.759c-.623,1.484.045,4.105-1.552,4.218" transform="translate(-450.106 -119.098)" fill="#fff" stroke="#fff" stroke-miterlimit="10" stroke-width="1"/><path d="M715.81,187.26s9.473.835,2.734,15.018" transform="translate(-481.8 -132.107)" fill="#fff"/><rect width="29.291" height="29.503" transform="translate(135.279 258.939)" fill="url(#e)"/><rect width="24.238" height="24.414" transform="translate(137.801 261.483)" fill="#31b781"/><rect width="70.698" height="5.089" transform="translate(187.798 136.859)" fill="#31b781"/><rect width="119.179" height="5.089" transform="translate(187.798 143.982)" fill="#e0e0e0"/><rect width="119.179" height="5.089" transform="translate(187.798 151.1)" fill="#e0e0e0"/><rect width="70.698" height="5.089" transform="translate(187.798 200.443)" fill="#31b781"/><rect width="119.179" height="5.089" transform="translate(187.798 207.561)" fill="#e0e0e0"/><rect width="119.179" height="5.089" transform="translate(187.798 214.685)" fill="#e0e0e0"/><rect width="70.698" height="5.089" transform="translate(187.798 264.023)" fill="#31b781"/><rect width="119.179" height="5.089" transform="translate(187.798 271.146)" fill="#e0e0e0"/><rect width="119.179" height="5.089" transform="translate(187.798 278.269)" fill="#e0e0e0"/><g transform="translate(67.97 283.107)"><path d="M249.445,513.9a38.444,38.444,0,1,0-.651,10.442,32.086,32.086,0,0,0,.651-4.714C249.608,517.016,249.445,513.9,249.445,513.9Z" transform="translate(-173.21 -478.3)" fill="url(#e)"/><path d="M217.7,485.65a35.584,35.584,0,1,0,35.33,35.583A35.457,35.457,0,0,0,217.7,485.65Zm0,65.9a30.312,30.312,0,1,1,30.094-30.308A30.2,30.2,0,0,1,217.7,551.549Z" transform="translate(-178.801 -482.787)" fill="#fff"/><ellipse cx="30.53" cy="30.752" rx="30.53" ry="30.752" transform="translate(8.374 7.695)" fill="#31b781"/><g transform="translate(18.572 18.553)"><path d="M25.448,44.845A19.484,19.484,0,0,1,7.989,33.952a19.693,19.693,0,0,1,2.488-20.925A19.512,19.512,0,0,1,30.291,6.616a1.494,1.494,0,1,1-.747,2.894A16.43,16.43,0,0,0,10.673,32.64a16.728,16.728,0,0,0,15.22,9.213,16.433,16.433,0,0,0,15.454-20.54,1.494,1.494,0,0,1,2.894-.747A19.42,19.42,0,0,1,25.975,44.839c-.176,0-.353.006-.527.006Z" transform="translate(-6.059 -6.005)" fill="#fff"/><g transform="translate(17.883 3.163)"><path d="M31.494,31.155a1.494,1.494,0,0,1-1.056-2.55L48.365,10.678a1.494,1.494,0,0,1,2.112,2.112L32.55,30.717a1.49,1.49,0,0,1-1.056.438Z" transform="translate(-30 -10.24)" fill="#fff"/></g><g transform="translate(11.545 14.752)"><path d="M29.347,35.081a1.487,1.487,0,0,1-1.056-.438l-6.338-6.338a1.494,1.494,0,1,1,2.112-2.112L30.4,32.531a1.494,1.494,0,0,1-1.056,2.55Z" transform="translate(-21.515 -25.755)" fill="#fff"/></g></g></g></g></svg>