<svg xmlns="http://www.w3.org/2000/svg" width="400.208" height="350.001" viewBox="0 0 400.208 350.001"><g transform="translate(0)"><rect width="383.074" height="245.338" transform="translate(6.364 0.217)" fill="#e6e6e6"/><rect width="361.167" height="200.052" transform="translate(17.318 30.989)" fill="#fff"/><rect width="383.074" height="16.274" transform="translate(6.201)" fill="#31b781"/><circle cx="3.016" cy="3.016" r="3.016" transform="translate(15.278 5.304)" fill="#fff"/><circle cx="3.016" cy="3.016" r="3.016" transform="translate(26.727 5.304)" fill="#fff"/><circle cx="3.016" cy="3.016" r="3.016" transform="translate(38.177 5.304)" fill="#fff"/><path d="M261.172,427.633l3.291,23.4,13.9,24.863c4.021,3.656.365,12.434.365,12.434l-3.656-2.559-.732-4.391s-16.088-18.285-20.109-22.668-5.486-28.523-5.486-28.523Z" transform="translate(-233.128 -264.45)" fill="#fbbebe"/><path d="M240.27,713.742s.73,8.414.365,10.6-11.334-.367-11.334-.367c1.828-3.656,2.924-14.625,2.924-14.625Z" transform="translate(-224.336 -391.858)" fill="#fbbebe"/><path d="M340.035,720.461s1.1,11.7.73,13.9-11.332-.375-11.332-.375c1.828-3.648,2.922-14.625,2.922-14.625Z" transform="translate(-269.619 -396.376)" fill="#fbbebe"/><circle cx="13.3" cy="13.3" r="13.3" transform="translate(34.71 109.894)" fill="#fbbebe"/><path d="M286.678,369.426c-2.2,2.926-1.1,8.043-1.1,8.043s-22.3,25.961-26.326,25.961-3.291-18.281-3.291-18.281,5.852-6.949,9.141-8.41,9.145-17.187,9.145-17.187S288.871,366.5,286.678,369.426Z" transform="translate(-236.37 -233.659)" fill="#fbbebe"/><path d="M290.09,468.359,304.4,492.4c2.611,4.3-2.246,26.055-2.246,26.055l-2.2,46.438L296.3,611.688v5.121l-12.066-.367-4.021-50.086-5.852-37.66-9.506,28.887-15.725,35.473a97.57,97.57,0,0,1-4.936,12.789l-2.926,5.117-10.967-1.281,16.635-56.117,3.291-36.57c.365-20.477,6.947-31.812,6.947-31.812v-4.387Z" transform="translate(-224.792 -282.867)" fill="#2f2e41"/><path d="M235.439,731.664s1.83-2.922,1.83-1.828,4.754,4.023,4.754,4.023,4.752-.727,5.484,4.75-6.582,6.586-8.41,6.219-6.582.367-6.582.367a32.846,32.846,0,0,1-9.508,0c-5.852-.727-.73-10.609,0-12.437s4.389-.359,4.389-.359C233.979,734.227,235.439,731.664,235.439,731.664Z" transform="translate(-220.237 -401.003)" fill="#2f2e41"/><path d="M335.574,741.688s1.828-2.93,1.828-1.828,4.754,4.023,4.754,4.023,4.754-.734,5.488,4.742c.73,5.492-6.582,6.594-8.41,6.219-1.832-.359-6.582.375-6.582.375a32.846,32.846,0,0,1-9.508,0c-5.852-.734-.734-10.617,0-12.437s4.387-.367,4.387-.367C334.113,744.242,335.574,741.688,335.574,741.688Z" transform="translate(-265.522 -405.541)" fill="#2f2e41"/><path d="M277.008,389.738C286.15,380.23,296.023,404,296.023,404s3.291,8.777.73,13.531,2.561,15.355,2.561,15.355c-12.521,10.66-25,20.52-36.566,13.527,1.463-8.77-3.291-13.16-6.582-21.57s-9.508-6.582-9.508-6.582.367-9.508,1.463-17.187,10.969-10.559,10.969-10.559C260.881,393.73,267.867,399.246,277.008,389.738Z" transform="translate(-232.187 -246.296)" fill="#3f3d56"/><path d="M321.168,419.629l3.293,23.4,13.895,24.863c4.023,3.656.363,12.434.363,12.434l-3.656-2.562-.727-4.383s-16.09-18.285-20.113-22.676-5.484-28.52-5.484-28.52Z" transform="translate(-260.26 -260.829)" fill="#fbbebe"/><path d="M322.551,407.777l-15.359,1.828s-1.1-17.918,1.223-22.391,10.848.449,10.848.449C321.453,388.031,322.551,407.777,322.551,407.777Z" transform="translate(-259.444 -245.32)" fill="#3f3d56"/><path d="M304.092,332.543c-9.838,4.914-4.162,18.336-5.322,23.969-1.9,9.223-29.939,4.535-29.939,4.535-3.41-.613-5.49-38.566,13.191-38.23C291.438,322.988,312.516,328.332,304.092,332.543Z" transform="translate(-241.192 -217.046)" fill="#2f2e41"/><ellipse cx="1.369" cy="2.191" rx="1.369" ry="2.191" transform="translate(55.534 122.781)" fill="#fbbebe"/><path d="M395.609,264.531c14.453,2.668,29.2,0,43.6-1.809l43.75-5.477c1.766-.225,4.344-1.281,5.383.881.582,1.211.191,3.834.234,5.225.113,3.834.1,7.67,0,11.5-.2,7.328-.734,14.643-1.418,21.939-1.332,14.279-3.219,28.482-4.156,42.816-.484,7.3-.723,14.615-.512,21.91.051,1.742.121,3.486.227,5.221.113,1.947.984,4.832-1.137,6.131-1.211.744-3.594.705-4.977.926-2.2.346-4.383.619-6.621.844-14.727,1.475-29.648.857-44.434.771l-44.641-.23-10.891-.061c-.984,0-4.543.592-5.148-.58-.258-.5.43-2.83.547-3.457q.252-1.544.547-3.084c1.273-7.2,2.773-14.361,4.285-21.516,3.25-15.336,6.574-30.75,7.91-46.416.66-7.861.223-15.793,1.035-23.637.379-3.643.828-11.771,5.676-12.1,4.105-.271,8.336,0,12.453,0a.821.821,0,1,0,0-1.643c-3.887,0-7.781-.1-11.672-.027-2.586.051-4.383.662-5.613,3.041-3.152,6.1-2.828,14.242-2.926,20.9-.234,15.947-2.684,31.553-5.871,47.146-1.605,7.852-3.336,15.672-4.93,23.525q-1.131,5.631-2.129,11.291c-.3,1.8-1.852,5.756-.488,7.4s5.555.764,7.438.773l13.07.078,25.043.143c16.18.092,32.418.549,48.59.072,7.723-.232,15.887-.549,23.406-2.4,2.242-.545,3.32-1.578,3.41-3.963.129-3.7-.473-7.523-.551-11.24-.547-31.826,6.93-63.207,6.164-95.045-.051-2.162.766-7.619-1.6-8.928-1.066-.592-2.445-.27-3.562-.137-2.137.246-4.27.549-6.4.8L450.953,259.6c-8.867,1.1-17.734,2.279-26.617,3.287-9.406,1.094-18.9,1.746-28.273,0-1.035-.193-1.48,1.389-.441,1.582Z" transform="translate(-284.863 -186.438)" fill="#e6e6e6"/><path d="M389.922,301.852l109.457-5.367c1.059-.055,1.059-1.7,0-1.645l-109.457,5.367C388.871,300.258,388.867,301.9,389.922,301.852Z" transform="translate(-296.62 -204.394)" fill="#e6e6e6"/><path d="M451.52,278.543a2.734,2.734,0,0,0,.973,4.418c1.473.678,3.2.111,4.664-.256,2.191-.549,4.383-1.035,6.637-1.436a90.6,90.6,0,0,1,14.836-1.381c2.266-.025,4.52.078,6.789.178,1.641.064,3.41.2,4.8-.822a3.1,3.1,0,0,0,.551-4.842c-2.2-2-6.914-.84-9.445-.631a210.966,210.966,0,0,0-27.312,4.078c-1.031.217-.594,1.8.438,1.58q8.912-1.922,17.961-3.09,4.453-.545,8.914-.926,2.1-.173,4.207-.3c.547-.033,1.129-.094,1.688-.078,1.734.039,1.938-.275.9,1.826-.926,1.854-.633,1.641-2.238,1.58-.676,0-1.355-.074-2.035-.109-1.391-.059-2.785-.09-4.172-.094q-4.447,0-8.867.428c-2.5.242-4.988.58-7.457,1.018-1.547.275-3.082.6-4.609.943-.672.16-1.352.324-2.023.5-.324.084-.652.164-.977.244q-1.793.627-3.062-1.645c.734-.762-.418-1.926-1.16-1.16Z" transform="translate(-324.494 -194.631)" fill="#e6e6e6"/><path d="M466.793,324.547c-7.926-.309-16.488,1.836-21.707,8.215C441,337.75,438.672,346.313,443,351.934c4.648,6.027,14.848,4.965,21,2.395,6.508-2.738,13.629-8.383,15.586-15.453,2.434-8.824-5.48-15.5-13.723-15.594a.821.821,0,0,0,0,1.641c4.7.059,9.313,2.074,11.5,6.449,2.293,4.613.316,9.457-2.742,13.148-4.895,5.875-12.555,10.309-20.355,10.184-4.68-.074-9.855-1.68-11.309-6.621a15.285,15.285,0,0,1,1.8-11.93c4.5-7.668,13.664-10.266,22.066-9.937,1.059.039,1.059-1.6,0-1.641Z" transform="translate(-319.93 -217.257)" fill="#e6e6e6"/><path d="M471.609,343.281a2.136,2.136,0,0,0-2.871,2.191c.164,2.137,2.52,2.738,4.289,2.613,1.527-.133,3.316-.7,2.777-2.605a2.456,2.456,0,0,0-1.332-1.547,3.127,3.127,0,0,0-1.547-.191c-.2,0-2.062.68-1.27-.137l-1.293-.168a1.334,1.334,0,0,1,.391,1.094.83.83,0,0,0,1.234.707,1.1,1.1,0,0,1,1.484,1.281.827.827,0,0,0,1.5.637c.547-.984,1.211-2.949.387-3.977a1.747,1.747,0,0,0-2.258-.086,7.886,7.886,0,0,0-1.129.973c-.664.582-1.1.859-.848-.266.41-2.043,2.359-3.668,4.141-4.484l-1.207-.926a17.267,17.267,0,0,1-3.316,6.492l1.4.578a3.653,3.653,0,0,1,2.238-3.562h-.8l.426.7c-.16,1.039,1.426,1.484,1.582.438.211-1.355-.645-3.113-2.23-2.449a5.153,5.153,0,0,0-2.828,4.879c0,.66.93,1.168,1.406.59a19.381,19.381,0,0,0,3.73-7.23.823.823,0,0,0-.3-.852.832.832,0,0,0-.906-.074,9.23,9.23,0,0,0-3.988,3.477c-.668,1.1-1.5,2.8-.824,4.063a1.736,1.736,0,0,0,2.363.684l.016-.008a6.318,6.318,0,0,0,1.375-1.1c.2-.18.43-.488.7-.547.242-.164.23-.07-.035.293a3.01,3.01,0,0,1-.477,1.6l1.5.629a2.742,2.742,0,0,0-3.9-3.141l1.242.715a3,3,0,0,0-.621-1.934.844.844,0,0,0-.6-.395.817.817,0,0,0-.684.223,2.15,2.15,0,0,0,.055,3.184c.781.6,1.168,0,2.023-.137,2.922-.375,1.219.938.191.98a3.9,3.9,0,0,1-1.379-.1q-1.717-.58-.215-1.5c.984.4,1.4-1.187.441-1.582Z" transform="translate(-332.614 -223.823)" fill="#e6e6e6"/><path d="M464.828,352.457c.672,2.2-2.109,2.918-3.43,3.672a7.6,7.6,0,0,0-2.371,2.074,15.764,15.764,0,0,0-2.348,6.426c-.211,1.035,1.371,1.477,1.586.438a18.51,18.51,0,0,1,1.387-4.727c.984-1.961,2.4-2.617,4.238-3.625s3.172-2.57,2.523-4.7C466.1,351.012,464.516,351.445,464.828,352.457Z" transform="translate(-327.155 -229.995)" fill="#e6e6e6"/><path d="M469.348,351.281a1.591,1.591,0,0,0-1.371,1.645c0,.652.434,1.066.73,1.586a12.554,12.554,0,0,1,1.586,3.457c.266,1.18.52,3.289-.09,4.383C469.07,364.383,467.02,364,465.27,364c-1.641,0-2.91.547-2.859-1.742a7.308,7.308,0,0,1,1.645-3.605l-1.5-.2a28.417,28.417,0,0,1,.5,5.074c0,.762,1.168,1.184,1.531.41a31.906,31.906,0,0,0,2.086-5.77l-1.613-.223.281,4.164a.827.827,0,0,0,1.527.414,1.8,1.8,0,0,0,.41-.734c.059-.262-.449-2-.648-1.379l1.609.219.117-3.953-1.648.219a8.18,8.18,0,0,1,.313,3.449c-.109.918,1.434,1.121,1.641.219l1.027-5.312-1.5.191a3.64,3.64,0,0,1,.277,2.367c-.117,1.051,1.523,1.043,1.645,0a5.756,5.756,0,0,0-.508-3.191.811.811,0,0,0-.809-.391.824.824,0,0,0-.687.586l-1.039,5.313,1.617.219a8.963,8.963,0,0,0-.367-3.883.824.824,0,0,0-1.613.215l-.113,3.953a.833.833,0,0,0,.719.8.822.822,0,0,0,.9-.582l.09-.266a.85.85,0,0,0-.211-.8c-1.7-1.848-2.047,1.1-2.637,1.914l1.531.418-.285-4.164a.825.825,0,0,0-1.613-.219,29.972,29.972,0,0,1-1.918,5.387l1.531.414a31.051,31.051,0,0,0-.547-5.512c-.141-.754-1.133-.723-1.5-.2-1.09,1.578-2.988,5.02-1.527,6.91,1.281,1.645,5.293,1.008,7.008.906,2.707-.152,3.688-1.871,3.98-4.418a10.772,10.772,0,0,0-.2-3.66c-.148-.648-1.645-4.746-2.094-4.66,1.039-.2.6-1.781-.437-1.594Z" transform="translate(-328.934 -229.918)" fill="#e6e6e6"/><path d="M466.781,356.156l-4.484,5.922,1.414.824L467,358.148l-1.5-.637-1.637,6.254a.824.824,0,0,0,1.5.633,29.748,29.748,0,0,1,2.5-3.52l-1.367-.8a8.95,8.95,0,0,1-2.066,3.8l1.375.8a7.306,7.306,0,0,1,.6-2.187c.422-.953-.914-1.789-1.418-.836a19.441,19.441,0,0,1-1.586,2.488l1.5.2.332-1.566-1.5-.2.242,1.367a.825.825,0,0,0,1.375.363,16.455,16.455,0,0,0,3.285-4.953h-1.414a7.273,7.273,0,0,1,.773,2.188c.2.988,1.5.621,1.613-.219a44.427,44.427,0,0,0,.359-5.531h-1.641v3.441c0,.895,1.457,1.16,1.609.223a6.376,6.376,0,0,1,.809-2.355H469.3a3.622,3.622,0,0,1,.551,1.859.82.82,0,1,0,1.641,0l.211-1.094h-1.586c.16.969.762,6.434-1.379,5.789-.363-.086-.465-.066-.312.063l.488-1.043,1.141-2.426-1.527-.414c.094,1.129.2,2.734-.48,3.7a2.836,2.836,0,0,1-3.1.637,5.49,5.49,0,0,1-1.426-1.5l-1.125,1.1c.91.66,2.387,2.289,3.555,2.379.895.074,1.648-.668,2.23-1.258a9.531,9.531,0,0,0,2.676-7.027.82.82,0,1,0-1.641,0v1.871a.82.82,0,1,0,1.641,0v-4.6a.82.82,0,0,0-1.641,0,19.762,19.762,0,0,1-.285,3.293l1.617.215a37.845,37.845,0,0,1-.18-3.937.826.826,0,0,0-.715-.8.818.818,0,0,0-.895.586c-.25,1.047-.551,2.074-.84,3.1l1.5-.2-.113-.437c-.078-1.047-1.723-1.055-1.645,0a3.048,3.048,0,0,0,.34,1.273.831.831,0,0,0,1.5-.2c.313-1.031.59-2.059.836-3.1l-1.613-.219a37.845,37.845,0,0,0,.18,3.938c.082.844,1.441,1.207,1.613.223a22.386,22.386,0,0,0,.34-3.75h-1.641v4.6h1.641v-1.875h-1.641a7.9,7.9,0,0,1-2,5.633,7.018,7.018,0,0,1-.687.676c-.391.375-.746.32-1.059-.168a13.745,13.745,0,0,1-2.262-1.645c-.68-.488-1.609.477-1.129,1.121,1.258,1.68,3.141,3.547,5.48,2.742,2.457-.871,2.789-4.2,2.605-6.395-.062-.727-1.152-1.219-1.527-.41-.551,1.16-1.1,2.309-1.645,3.469a3.087,3.087,0,0,0-.492,1.445c.18,1.234,1.676,1.031,2.594.957,3.57-.266,3-5.32,2.594-7.863-.141-.844-1.363-.711-1.586,0a4.9,4.9,0,0,0-.266,1.555h1.641a6.478,6.478,0,0,0-.773-2.691.814.814,0,0,0-.707-.4.83.83,0,0,0-.711.4A8.08,8.08,0,0,0,468.32,359l1.645.219v-3.449a.822.822,0,0,0-1.645,0,44.441,44.441,0,0,1-.359,5.535l1.613-.219a9.392,9.392,0,0,0-.937-2.562.826.826,0,0,0-1.418,0,14.974,14.974,0,0,1-3.031,4.621l1.375.363-.238-1.371c-.129-.727-1.156-.75-1.5-.2a3.6,3.6,0,0,0-.5,2.828c.137.773,1.121.691,1.5.2a19.855,19.855,0,0,0,1.578-2.48l-1.414-.836a9.2,9.2,0,0,0-.77,2.582c-.1.723.762,1.477,1.371.8a10.953,10.953,0,0,0,2.492-4.523c.2-.746-.828-1.453-1.375-.8a31.479,31.479,0,0,0-2.738,3.832l1.5.637,1.668-6.23a.818.818,0,0,0-.48-.945.828.828,0,0,0-1.02.313l-3.285,4.762c-.617.879.793,1.641,1.418.824l4.473-5.918c.633-.84-.793-1.641-1.422-.828Z" transform="translate(-329.55 -231.1)" fill="#e6e6e6"/><path d="M597.328,346.383c6.57-4.02,11.8-10.02,17.6-15.035,6.3-5.441,12.914-10.508,19.719-15.309,13.219-9.309,27.109-17.641,40.984-25.949a.826.826,0,0,0,.273-1.109.814.814,0,0,0-1.094-.309c-13.883,8.309-27.773,16.625-41,25.953-6.234,4.383-12.32,9.023-18.164,13.957-6.359,5.367-12.016,12.051-19.172,16.383-.906.551-.078,1.973.828,1.418Z" transform="translate(-390.213 -201.561)" fill="#e6e6e6"/><path d="M761.875,244.76c-7.125.723-14.789,2.533-19.172,8.764-3.781,5.355-3.7,14.7-.148,20.2,4.039,6.25,12.289,6.475,18.7,4.451s13.039-5.564,12.984-13.221c-.039-4.109-1.516-8.387-3.156-12.113-1.414-3.215-3.914-6.023-7.711-5.668-1.039.1-1.055,1.742,0,1.645,5.086-.473,6.711,5.559,7.914,9.365,1.1,3.555,2.109,7.762.4,11.295-1.727,3.533-5.867,5.336-9.414,6.627-3.836,1.393-8.047,2.242-12.055,1.1-7.93-2.219-10.125-12.271-7.836-19.4,2.625-8.217,11.938-10.631,19.523-11.4,1.039-.105,1.055-1.748,0-1.643Z" transform="translate(-455.236 -181.747)" fill="#e6e6e6"/><path d="M781.875,360.758c-7.125.723-14.789,2.535-19.172,8.766-3.781,5.355-3.7,14.7-.156,20.2,4.039,6.246,12.3,6.473,18.7,4.449s13.039-5.566,12.977-13.223c-.031-4.105-1.516-8.387-3.148-12.109-1.422-3.215-3.922-6.027-7.711-5.672-1.039.1-1.055,1.746,0,1.645,5.078-.469,6.711,5.563,7.914,9.367,1.094,3.555,2.109,7.762.391,11.293s-5.867,5.34-9.414,6.629c-3.828,1.395-8.047,2.242-12.047,1.1-7.93-2.223-10.125-12.273-7.836-19.4,2.625-8.219,11.938-10.633,19.523-11.4,1.047-.105,1.055-1.746,0-1.645Z" transform="translate(-464.283 -234.203)" fill="#e6e6e6"/><path d="M760.266,250.842l5.18,5.916a.838.838,0,0,0,.789.205.829.829,0,0,0,.586-.572c1.094-2.879.883-5.865,1.141-8.895a29.246,29.246,0,0,1,2.328-9.078,30.622,30.622,0,0,1,12.258-14.049c.906-.549.078-1.973-.82-1.418a32.164,32.164,0,0,0-12.4,13.615,31.512,31.512,0,0,0-2.742,8.7c-.547,3.555-.047,7.279-1.359,10.691l1.375-.367-5.164-5.9c-.7-.793-1.852.373-1.164,1.16Z" transform="translate(-464.362 -171.83)" fill="#e6e6e6"/><path d="M602.516,403.762q42.375-1.289,84.781-.547a.821.821,0,0,0,0-1.641q-42.387-.762-84.781.543C601.461,402.152,601.453,403.8,602.516,403.762Z" transform="translate(-392.759 -252.538)" fill="#e6e6e6"/><path d="M768.3,374.867a169.281,169.281,0,0,1,27.758,13.945c.891.547,1.719-.863.82-1.422a171.719,171.719,0,0,0-28.117-14.109c-.984-.387-1.406,1.2-.437,1.586Z" transform="translate(-467.849 -239.842)" fill="#e6e6e6"/><path d="M787.453,362.406a67.138,67.138,0,0,0-16.109,40.828c-.047,1.059,1.6,1.059,1.641,0a65.249,65.249,0,0,1,15.633-39.664C789.3,362.77,788.148,361.6,787.453,362.406Z" transform="translate(-469.469 -234.827)" fill="#e6e6e6"/><path d="M400.133,392.734l61.223-.8,7.039-.094c1.266,0,2.531-.043,3.8-.051a3.02,3.02,0,0,1,2.945,3.289c-.082,3.832-2.492,3.7-5.648,3.832l-7.605.348L430.9,400.621c-5.547.25-11.1.547-16.652.738-5,.156-14.527-1.477-12.3-8.766.309-1.008-1.277-1.445-1.586-.437-1.1,3.586.844,7.223,3.965,9.1,4.43,2.664,10.27,1.758,15.16,1.539l38.039-1.727,9.23-.41c2.371-.109,5.664.375,7.836-.73,2.551-1.285,3-6.395,1.391-8.547-.824-1.1-1.988-1.2-3.285-1.242-3.41-.133-6.875.09-10.285.133l-18.965.254-43.336.547a.821.821,0,0,0,0,1.641Z" transform="translate(-301.221 -247.477)" fill="#e6e6e6"/><path d="M494.254,334.238l-17.781-10.715,5.191,20.1L484.8,336.3l5.223,7,1.543-1.152-5.219-7Z" transform="translate(-215.479 -146.309)" fill="#31b781"/><rect width="30.127" height="10.408" transform="translate(275.188 199.469)" fill="#31b781"/><path d="M316.828,179.236l17.785-10.713-5.2,20.1-3.129-7.322-5.223,7-1.547-1.154,5.223-7Z" transform="translate(-143.281 -76.212)" fill="#3f3d56"/><rect width="30.127" height="10.408" transform="translate(147.011 115.113)" fill="#3f3d56"/><g transform="translate(314.89 72.935)"><path d="M501.281,493.4l1.945,8.414s-.648,19.414,4.527,17.477,3.887-18.77,3.887-18.77l-4.535-8.41Z" transform="translate(-489.414 -371.241)" fill="#ffb8b8"/><circle cx="12.943" cy="12.943" r="12.943" transform="translate(27.724 4.057)" fill="#ffb8b8"/><path d="M471.75,337.109l1.293,18.77-16.18,1.938s0-15.527-1.293-17.469S471.75,337.109,471.75,337.109Z" transform="translate(-421.051 -316.548)" fill="#ffb8b8"/><path d="M416,367.523l20.957-8.871s10.012-7.727,15.883-2.016l2.637,3.77s23.3,9.059,23.3,16.18l-9.062,35.594s5.184,20.063-2.586,21.352l-42.062,3.887a14.563,14.563,0,0,1-.648-16.18l-1.941-21.359Z" transform="translate(-401.225 -322.696)" fill="#575a89"/><path d="M516.887,375.254l-14.234-.648s-4.531,1.293-7.77,13.594S491,420.555,491,420.555L498.77,456.8l9.7-1.3-3.879-34.945,6.469-23.3Z" transform="translate(-487.871 -329.777)" fill="#575a89"/><path d="M410.477,381.609l7.02,2.188s5.922,8.813,5.922,13.344,2.59,38.828,2.59,38.828L409.184,463.8,404,450.207l10.355-17.473-8.414-21.355Z" transform="translate(-340.69 -332.252)" fill="#575a89"/><path d="M428.359,478.379l46.527-4.1s4.594,29.332,3.945,40.98-1.293,29.77-1.293,29.77l5.18,78.953-20.062-2.59-2.59-65.363-8.414-35.59-9.7,45.3-6.473,58.242L418,622.043l5.824-70.539S418.648,488.082,428.359,478.379Z" transform="translate(-406.461 -364.949)" fill="#2f2e41"/><path d="M507.43,697.609l-5.824,1.945s-12.293-3.234-9.059,5.18,12.3,7.117,12.3,7.117,11,8.414,15.531,1.938l-2.59-13.586Z" transform="translate(-492.005 -443.754)" fill="#2f2e41"/><path d="M434.43,697.609l-5.824,1.945s-12.293-3.234-9.062,5.18,12.3,7.117,12.3,7.117,11,8.414,15.531,1.938L444.785,700.2Z" transform="translate(-371.759 -443.754)" fill="#2f2e41"/><path d="M466.535,333.668s13.59-9.711,6.473-21.355c-4.937-8.082-15.172-7.441-20.977-6.293a9.81,9.81,0,0,0-7.176,5.645c-.969,2.262-.969,4.527,2.914,4.527,7.766,0,3.883,5.824,3.883,5.824s5.18,1.3,3.883,5.824S466.535,333.668,466.535,333.668Z" transform="translate(-415.838 -305.342)" fill="#2f2e41"/></g></g></svg>