<svg xmlns="http://www.w3.org/2000/svg" xmlns:xlink="http://www.w3.org/1999/xlink" width="462" height="316.989" viewBox="0 0 462 316.989"><defs><linearGradient id="a" y1="0.5" x2="1" y2="0.5" gradientUnits="objectBoundingBox"><stop offset="0" stop-color="gray" stop-opacity="0.251"/><stop offset="0.535" stop-color="gray" stop-opacity="0.122"/><stop offset="1" stop-color="gray" stop-opacity="0.102"/></linearGradient></defs><g transform="translate(-10.631 0)"><path d="M286.613,434.44s-4.052,48.717-4.922,59.157a74.238,74.238,0,0,1-4.35,19.139,18,18,0,0,0-1.74,6.959v44.367s-3.48,0-2.61,3.48,1.74,9.569,1.74,9.569H287.78a2.694,2.694,0,0,1,1.74-3.48c2.61-.87,0-7.83,0-7.83l13.919-52.2,20.878-43.5s12.179,39.147,14.789,43.5c0,0,9.569,48.716,11.309,53.066s2.61,4.35,1.74,6.09-.87,3.48,0,4.35,17.4,0,17.4,0l-4.35-61.766L357.376,441.4l-40.017-12.179Z" transform="translate(-205.141 -284.675)" fill="#2f2e41"/><path d="M276.69,664.016s-4.35-15.659-11.309-3.48-6.959,16.529-6.959,16.529-11.309,16.529,4.35,14.789,12.179-9.569,12.179-9.569,6.09-3.48,6.09-6.09S276.69,664.016,276.69,664.016Z" transform="translate(-197.53 -378.54)" fill="#2f2e41"/><path d="M409.585,661.047s4.35-15.659,11.309-3.48,6.959,16.529,6.959,16.529,11.309,16.529-4.35,14.789-12.179-9.569-12.179-9.569-6.09-3.48-6.09-6.089S409.585,661.047,409.585,661.047Z" transform="translate(-259.96 -377.311)" fill="#2f2e41"/><path d="M339.7,237.686s1.74,11.309-3.48,13.919,11.309,12.179,15.659,12.179,12.179-8.7,12.179-8.7-4.35-13.049-3.48-15.659Z" transform="translate(-230.965 -205.361)" fill="#ffb8b8"/><circle cx="18.269" cy="18.269" r="18.269" transform="translate(100.038 4.487)" fill="#ffb8b8"/><path d="M368.213,274.746,346.465,261.57s-12.374,14.046-25.761-1.613l-22.956,6.09,3.48,59.155s-5.22,23.488-3.48,27.838-4.35,6.09-2.61,6.96,0,6.959,0,6.959,33.928,17.4,71.335,4.35L362.993,360a9.129,9.129,0,0,0-1.74-8.7s3.48-5.22-.87-9.569c0,0,1.74-7.829-2.61-11.309l-.87-12.179,2.61-6.09Z" transform="translate(-214.239 -214.583)" fill="#cfcce0"/><path d="M336.248,196.788s-2.178,4.713,6.534,2.828c0,0,3.267,1.885,3.267-.943,0,0,4.356,4.713,5.445,1.885s3.267.943,3.267.943l2.178-4.713,2.178,2.828h7.623s2.178-18.854-23.958-16.968S329.5,214.4,329.5,214.4s.21-5.362,2.388-2.534S336.248,196.788,336.248,196.788Z" transform="translate(-227.291 -182.515)" fill="#2f2e41"/><path d="M421.9,344.589l.87,18.269s3.48,33.927-3.48,48.716V419.4s-1.74,20.009-10.439,19.139,2.61-28.708,2.61-28.708l-1.74-38.277-1.74-21.748Z" transform="translate(-260.095 -249.629)" fill="#ffb8b8"/><path d="M398.216,285.687l8.678-1.41a42.369,42.369,0,0,1,12.2,22.288c2.61,13.919,3.48,16.529,3.48,16.529l-20.879,5.22-11.309-21.748Z" transform="translate(-253.812 -224.654)" fill="#cfcce0"/><rect width="137.284" height="68.197" transform="translate(107.04 51.105)" fill="#fff"/><path d="M374.764,348.571H352.721a4.96,4.96,0,0,0,0,9.92h22.044a4.96,4.96,0,1,0,0-9.92Z" transform="translate(-236.16 -251.278)" fill="#31b781"/><path d="M469.133,259.215H345.54a10.948,10.948,0,0,0-10.948,10.948V330.38a10.948,10.948,0,0,0,10.948,10.948H469.133a10.948,10.948,0,0,0,10.948-10.948V270.163a10.948,10.948,0,0,0-10.948-10.948Zm-126.651,7.468c.244-.044,6.031-1.029,10.824,1.855s6.633,8.458,6.709,8.694l.194.6-.622.11a16.509,16.509,0,0,1-2.682.2,15.97,15.97,0,0,1-8.142-2.052c-4.792-2.883-6.633-8.457-6.709-8.693l-.194-.6Zm26.829,55.908H347.267a6.062,6.062,0,1,1,0-12.124h22.044a6.062,6.062,0,1,1,0,12.124Zm100.3-1.1A6.633,6.633,0,0,1,463,328.1H446.464a6.633,6.633,0,0,1-6.613-6.613v-9.919a6.633,6.633,0,0,1,6.613-6.613H463a6.632,6.632,0,0,1,6.613,6.613Z" transform="translate(-230.707 -214.276)" fill="#575a89"/><path d="M528.04,362.209h-7.164a1.929,1.929,0,1,0,0,3.858h7.164a1.929,1.929,0,1,0,0-3.858Zm0,2.755h-7.164a.827.827,0,1,1,0-1.653h7.164a.827.827,0,1,1,0,1.653Z" transform="translate(-307.047 -256.925)" fill="#31b781"/><path d="M550.614,362.209H543.45a1.929,1.929,0,0,0,0,3.858h7.164a1.929,1.929,0,1,0,0-3.858Zm0,2.755H543.45a.827.827,0,0,1,0-1.653h7.164a.827.827,0,1,1,0,1.653Z" transform="translate(-316.395 -256.925)" fill="#31b781"/><path d="M528.04,353.744h-7.164a1.929,1.929,0,1,0,0,3.858h7.164a1.929,1.929,0,1,0,0-3.858Zm0,2.755h-7.164a.827.827,0,0,1,0-1.653h7.164a.827.827,0,1,1,0,1.653Z" transform="translate(-307.047 -253.42)" fill="#31b781"/><path d="M550.614,353.744H543.45a1.929,1.929,0,0,0,0,3.858h7.164a1.929,1.929,0,1,0,0-3.858Zm0,2.755H543.45a.827.827,0,0,1,0-1.653h7.164a.827.827,0,1,1,0,1.653Z" transform="translate(-316.395 -253.42)" fill="#31b781"/><path d="M528.04,345.279h-7.164a1.929,1.929,0,1,0,0,3.858h7.164a1.929,1.929,0,0,0,0-3.858Zm0,2.755h-7.164a.827.827,0,0,1,0-1.653h7.164a.827.827,0,0,1,0,1.653Z" transform="translate(-307.047 -249.915)" fill="#31b781"/><path d="M550.614,345.279H543.45a1.929,1.929,0,0,0,0,3.858h7.164a1.929,1.929,0,1,0,0-3.858Zm0,2.755H543.45a.827.827,0,0,1,0-1.653h7.164a.827.827,0,1,1,0,1.653Z" transform="translate(-316.395 -249.915)" fill="#31b781"/><path d="M275.413,311.312s-7.829,33.058,1.74,33.058,32.188-37.407,32.188-37.407,23.488-12.179,13.919-16.529-21.748,6.96-21.748,6.96L287.458,316.9l-.736-9.941Z" transform="translate(-204.953 -226.791)" fill="#ffb8b8"/><path d="M293.354,275.57l-5.22-5.22s-10.439,6.09-11.309,12.179-5.22,25.228-5.22,25.228l16.094,1.3,5.22-7.829Z" transform="translate(-204.625 -218.887)" fill="#cfcce0"/><g transform="translate(273.092 19.002)"><path d="M726.412,239.825c-.6-1.769-8.11-7.781-3.508-8.791l3.774,5.033,17.354-17.353,1.745,1.745Z" transform="translate(-713.162 -218.332)" fill="#31b781"/><path d="M726.412,350.019c-.6-1.769-8.11-7.781-3.508-8.791l3.774,5.033,17.354-17.353,1.745,1.745Z" transform="translate(-713.162 -269.517)" fill="#31b781"/><path d="M726.412,461.787c-.6-1.769-8.11-7.781-3.508-8.791l3.774,5.033,17.354-17.353,1.745,1.745Z" transform="translate(-713.162 -321.433)" fill="#31b781"/><circle cx="5.355" cy="5.355" r="5.355" transform="translate(60.458 8.963)" fill="#3f3d56"/><circle cx="5.355" cy="5.355" r="5.355" transform="translate(60.458 67.972)" fill="#3f3d56"/><circle cx="5.355" cy="5.355" r="5.355" transform="translate(60.458 127.823)" fill="#3f3d56"/><path d="M576.815,288.8H550.04v-27.31h18.207v1.071H551.111v25.168h24.633V275.408h1.071Z" transform="translate(-550.04 -140.463)" fill="#3f3d56"/><path d="M576.815,176.8H550.04v-27.31h18.207v1.071H551.111v25.168h24.633V163.408h1.071Z" transform="translate(-550.04 -88.438)" fill="#3f3d56"/><path d="M576.815,62.8H550.04V35.485h18.207v1.071H551.111V61.724h24.633V49.408h1.071Z" transform="translate(-550.04 -35.485)" fill="#3f3d56"/><path d="M547.024,452.083c-1.583,0-2.872,2.269-2.872,5.058s1.288,5.058,2.872,5.058H655.259c1.583,0,2.871-2.269,2.871-5.058s-1.288-5.058-2.871-5.058Z" transform="translate(-458.591 -442.55)" fill="#e6e6e6"/><path d="M547.024,452.083c-1.583,0-2.872,2.269-2.872,5.058s1.288,5.058,2.872,5.058H655.259c1.583,0,2.871-2.269,2.871-5.058s-1.288-5.058-2.871-5.058Z" transform="translate(-458.591 -382.847)" fill="#e6e6e6"/><path d="M547.024,452.083c-1.583,0-2.872,2.269-2.872,5.058s1.288,5.058,2.872,5.058H655.259c1.583,0,2.871-2.269,2.871-5.058s-1.288-5.058-2.871-5.058Z" transform="translate(-458.591 -324.173)" fill="#e6e6e6"/></g><g transform="translate(10.631 180.386)"><g transform="translate(0 0)"><path d="M385.008,76.854,332,109.476s0,67.282,53.01,103.982c53.01-36.7,53.01-103.982,53.01-103.982Z" transform="translate(-331.998 -76.854)" fill="#e6e6e6"/><path d="M382.572,76.854,332,107.977s0,64.191,50.574,99.2c50.574-35.013,50.574-99.2,50.574-99.2Z" transform="translate(-327.127 -76.854)" fill="#31b781"/><path d="M599.564,76.854l-.865.532V206.574c.287.2.574.406.865.607,50.574-35.013,50.574-99.2,50.574-99.2Z" transform="translate(-543.816 -76.854)" fill="#e4f8f0" opacity="0.1"/><g transform="translate(39.229 54.756)" opacity="0.7"><path d="M348.894,311.061l9.534,8.74,11.819-17.05,4.767,3.973-16.586,21.023-13.507-15.1Z" transform="translate(-344.921 -302.75)" fill="url(#a)"/></g><path d="M364.144,310.773l7.734,7.089,10.957-16.112,3.867,3.223-14.824,19.335-10.956-12.245Z" transform="translate(-318.691 -247.181)" fill="#fff"/></g></g></g></svg>