<svg xmlns="http://www.w3.org/2000/svg" width="110" height="110" viewBox="0 0 110 110">
  <g id="students-getting-started-icon-3" transform="translate(-5320 -1996)">
    <g id="Ellipse_261" data-name="Ellipse 261" transform="translate(5320 1996)" fill="none" stroke="#edf0f5" stroke-width="2" stroke-dasharray="60">
      <circle cx="55" cy="55" r="55" stroke="none"/>
      <circle cx="55" cy="55" r="54" fill="none"/>
    </g>
    <g id="students-getting-started-icon-3-2" data-name="students-getting-started-icon-3" transform="translate(5318.041 2006)">
      <path id="Path_4864" data-name="Path 4864" d="M334.552,33.621V27.576a56.14,56.14,0,0,0,9.108-5.071q-.719-.493-1.423-1.007a56.136,56.136,0,0,1-10.531,6.078v6.044c0,8.323,8.778,11.68,10.338,12.21.281-.092.8-.271,1.452-.549C340.53,43.975,334.552,40.489,334.552,33.621Z" transform="translate(-267.383 -9.862)" fill="#31b781" opacity="0.15"/>
      <g id="Group_2726" data-name="Group 2726" transform="translate(19.958 29.266)">
        <path id="Path_4865" data-name="Path 4865" d="M20.812,147.092h6.213a2.526,2.526,0,0,1,2.526,2.526v32.07a6.183,6.183,0,0,0,6.169,6.184H73.537a.854.854,0,1,0,0-1.708H35.718a4.473,4.473,0,0,1-4.46-4.477v-32.07a4.234,4.234,0,0,0-4.233-4.233H20.812a.854.854,0,0,0,0,1.708Z" transform="translate(-19.958 -145.384)" fill="#283444"/>
        <path id="Path_4866" data-name="Path 4866" d="M139.64,456.062a3.511,3.511,0,1,0,3.511-3.519A3.511,3.511,0,0,0,139.64,456.062Zm5.314,0a1.8,1.8,0,1,1-1.8-1.811A1.8,1.8,0,0,1,144.954,456.062Z" transform="translate(-122.608 -408.831)" fill="#283444"/>
        <path id="Path_4867" data-name="Path 4867" d="M326.35,456.062a3.511,3.511,0,1,0,3.511-3.519A3.511,3.511,0,0,0,326.35,456.062Zm5.314,0a1.8,1.8,0,1,1-1.8-1.811A1.8,1.8,0,0,1,331.664,456.062Z" transform="translate(-282.747 -408.831)" fill="#283444"/>
        <path id="Path_4868" data-name="Path 4868" d="M164.051,190.467a2.487,2.487,0,0,0-2.474-2.494h-8.1a2.487,2.487,0,0,0-2.473,2.494v2.3h-6.4a4.132,4.132,0,0,0-4.127,4.127v18.307a4.135,4.135,0,0,0,3.118,4v1.4a.854.854,0,1,0,1.708,0v-1.276h25.927v1.276a.854.854,0,1,0,1.708,0V219.24a4.134,4.134,0,0,0,3.259-4.035V196.9a4.132,4.132,0,0,0-4.127-4.127h-8.02Zm-11.338,0a.777.777,0,0,1,.766-.787h8.1a.777.777,0,0,1,.766.787v2.3h-9.63Zm19.357,27.158H144.605a2.423,2.423,0,0,1-2.419-2.419v-1.963h32.3v1.963A2.423,2.423,0,0,1,172.071,217.625ZM174.49,196.9v14.636h-32.3V196.9a2.423,2.423,0,0,1,2.419-2.419h13.481l3.8,3.863v3.381a.854.854,0,0,0,.246.6l5.321,5.388a.854.854,0,0,0,1.215,0l3.546-3.592a.854.854,0,0,0,0-1.2l-5.319-5.388a.854.854,0,0,0-.608-.254h-3.052l-2.751-2.8h11.59a2.423,2.423,0,0,1,2.42,2.421Zm-10.9,4.474v-2.388h2.337l4.476,4.534-2.346,2.377Z" transform="translate(-123.328 -181.912)" fill="#283444"/>
      </g>
      <path id="Path_4869" data-name="Path 4869" d="M326.627,34.871a20.832,20.832,0,0,0,5.835,2.984.852.852,0,0,0,.472,0,21.86,21.86,0,0,0,6.028-2.978c4.009-2.834,6.128-6.6,6.128-10.9V17.407a.854.854,0,0,0-.517-.784l-.074-.032a54.181,54.181,0,0,1-11.088-6.42.854.854,0,0,0-1.025,0,54.174,54.174,0,0,1-11.088,6.42l-.075.032a.854.854,0,0,0-.516.784v6.577C320.707,28.273,322.754,32.037,326.627,34.871Zm-4.212-16.9A55.911,55.911,0,0,0,332.9,11.917a55.9,55.9,0,0,0,10.484,6.051v6.017c0,3.754-1.806,6.941-5.367,9.473a20.82,20.82,0,0,1-5.308,2.682,19.8,19.8,0,0,1-5.111-2.675c-3.438-2.531-5.18-5.721-5.18-9.479Z" transform="translate(-257.949 0)" fill="#31b781"/>
      <path id="Path_4870" data-name="Path 4870" d="M374.444,89.2a.854.854,0,0,0,1.208,0l5.669-5.669a.854.854,0,0,0-1.208-1.208l-5.065,5.065L373.16,85.5a.854.854,0,0,0-1.208,1.208Z" transform="translate(-301.688 -61.814)" fill="#31b781"/>
    </g>
  </g>
</svg>
