<svg xmlns="http://www.w3.org/2000/svg" width="70" height="69.999" viewBox="0 0 70 69.999">
  <g id="general-inquiries-icon" transform="translate(0 -0.004)">
    <g id="Group_2363" data-name="Group 2363" transform="translate(1.166 1.171)">
      <g id="Group_2360" data-name="Group 2360" transform="translate(0)">
        <path id="Path_3113" data-name="Path 3113" d="M41.394,7.538a33.785,33.785,0,1,0,23.937,9.9A33.83,33.83,0,0,0,41.394,7.538Zm0,54.832a21.06,21.06,0,1,1,14.513-5.857A21.06,21.06,0,0,1,41.394,62.37Z" transform="translate(-7.561 -7.538)" fill="#f1f8f5"/>
        <path id="Path_3114" data-name="Path 3114" d="M41.365,154.674v12.833A33.834,33.834,0,0,1,13.518,114.46l10.57,7.3a20.981,20.981,0,0,0,17.278,32.911Z" transform="translate(-7.533 -99.842)" fill="#f1f8f5"/>
        <path id="Path_3115" data-name="Path 3115" d="M278.4,375.054a33.684,33.684,0,0,1-23.4,9.4V371.624a20.82,20.82,0,0,0,14.513-5.856l7.14,7.466Z" transform="translate(-221.167 -316.792)" fill="#f1f8f5"/>
        <path id="Path_3116" data-name="Path 3116" d="M380.474,255a33.694,33.694,0,0,1-10.43,24.429l-1.75-1.82-7.14-7.466A20.82,20.82,0,0,0,367.641,255Z" transform="translate(-312.808 -221.171)" fill="#f1f8f5"/>
        <path id="Path_3117" data-name="Path 3117" d="M79.157,7.538V20.371a20.934,20.934,0,0,0-17.278,9.088l-10.57-7.3A33.785,33.785,0,0,1,79.157,7.538Z" transform="translate(-45.324 -7.538)" fill="#f1f8f5"/>
        <path id="Path_3118" data-name="Path 3118" d="M185.032,271.132a.117.117,0,0,0,.058.047l6.1,3.29A3.424,3.424,0,0,1,193,277.432v1.995H169.667v-1.995a3.424,3.424,0,0,1,1.808-2.963l6.1-3.29a.117.117,0,0,0,.058-.047Z" transform="translate(-147.501 -235.095)" fill="#f1f8f5"/>
      </g>
      <path id="Path_3119" data-name="Path 3119" d="M221.209,152.385v1.762a1.77,1.77,0,0,1-.583,1.307,1.931,1.931,0,0,0-.548.968,8.375,8.375,0,0,1-1.622,2.812.418.418,0,0,0-.1.28v1.54a.45.45,0,0,0,.2.373l-3.7,2.462-3.7-2.462a.45.45,0,0,0,.2-.373v-1.54a.418.418,0,0,0-.1-.28,8.373,8.373,0,0,1-1.622-2.812,1.929,1.929,0,0,0-.548-.968,1.77,1.77,0,0,1-.583-1.307v-1.762a1.747,1.747,0,0,1,.21-.828l.1-.2a1.749,1.749,0,0,0,.21-.828V148a4.109,4.109,0,0,1,4.247-3.943h3.173A4.109,4.109,0,0,1,220.684,148v2.532a1.749,1.749,0,0,0,.21.828l.1.2A1.747,1.747,0,0,1,221.209,152.385Z" transform="translate(-181.019 -125.389)" fill="#e4f8f0"/>
      <g id="Group_2361" data-name="Group 2361" transform="translate(32.094 0)">
        <path id="Path_3120" data-name="Path 3120" d="M265.676,420.38c-.548.63-1.143,1.237-1.75,1.82a33.671,33.671,0,0,1-19.9,9.216c-.572.07-1.155.105-1.738.14.572.035,1.155.047,1.738.047a33.684,33.684,0,0,0,23.4-9.4Z" transform="translate(-242.285 -363.938)" fill="#cbe8dc"/>
        <path id="Path_3121" data-name="Path 3121" d="M425.558,255a33.694,33.694,0,0,1-10.43,24.429l-1.75-1.82A33.611,33.611,0,0,0,422.058,255Z" transform="translate(-389.987 -221.172)" fill="#cbe8dc"/>
        <path id="Path_3122" data-name="Path 3122" d="M277.856,41.37h-3.5A33.831,33.831,0,0,0,242.285,7.585c.572-.035,1.155-.047,1.738-.047A33.827,33.827,0,0,1,277.856,41.37Z" transform="translate(-242.285 -7.538)" fill="#cbe8dc"/>
      </g>
      <g id="Group_2362" data-name="Group 2362" transform="translate(0 0)">
        <path id="Path_3123" data-name="Path 3123" d="M178.684,151.557l.1-.2a1.749,1.749,0,0,0,.21-.828V148a4.088,4.088,0,0,1,4.083-3.928c-.055,0-.107-.015-.163-.015h-3.173A4.109,4.109,0,0,0,175.5,148v2.532a1.749,1.749,0,0,1-.21.828l-.105.2a1.747,1.747,0,0,0-.21.828v1.762a1.77,1.77,0,0,0,.583,1.307,1.931,1.931,0,0,1,.548.968,8.375,8.375,0,0,0,1.622,2.812.418.418,0,0,1,.1.28v1.54a.45.45,0,0,1-.2.373.117.117,0,0,1-.058.047l-6.1,3.29a3.424,3.424,0,0,0-1.808,2.963v1.995h3.5v-1.995a3.424,3.424,0,0,1,1.808-2.963l6.1-3.29a.117.117,0,0,0,.058-.047.45.45,0,0,0,.2-.373v-1.54a.418.418,0,0,0-.105-.28,8.373,8.373,0,0,1-1.622-2.812,1.929,1.929,0,0,0-.548-.968,1.77,1.77,0,0,1-.583-1.307v-1.762A1.749,1.749,0,0,1,178.684,151.557Z" transform="translate(-147.5 -125.389)" fill="#fff"/>
        <path id="Path_3124" data-name="Path 3124" d="M41.367,75.2q.877,0,1.742-.045A33.827,33.827,0,0,1,43.2,7.59l-.072-.005h.011q-.88-.046-1.772-.046c-.583,0-1.167.012-1.738.047l.071.005A33.827,33.827,0,0,0,41.367,75.2Z" transform="translate(-7.534 -7.538)" fill="#fff"/>
      </g>
    </g>
    <g id="Group_2365" data-name="Group 2365" transform="translate(0 0.004)">
      <path id="Path_3125" data-name="Path 3125" d="M2.333,256A32.854,32.854,0,0,0,5.591,270.15a34.884,34.884,0,0,0,2.243,3.989c.434.627.909,1.227,1.361,1.842a15.255,15.255,0,0,0,1.468,1.756,31.346,31.346,0,0,0,6.969,5.9,31.829,31.829,0,0,0,8.325,3.739A34.867,34.867,0,0,0,35,288.67V291a37.193,37.193,0,0,1-9.687-1.388,34.161,34.161,0,0,1-8.924-4.007,33.67,33.67,0,0,1-7.465-6.316,16.911,16.911,0,0,1-1.572-1.881c-.485-.659-.992-1.3-1.456-1.975a37.2,37.2,0,0,1-2.406-4.274A35.189,35.189,0,0,1,0,256Z" transform="translate(0 -221.005)" fill="#fff"/>
      <g id="Group_2364" data-name="Group 2364" transform="translate(0)">
        <path id="Path_3126" data-name="Path 3126" d="M10.624,317.2a1.174,1.174,0,0,0,.455-.047,1.228,1.228,0,0,0,.8-1.439,1.168,1.168,0,0,0-.526-.69l-.2-.09a.911.911,0,0,0-.23-.049.762.762,0,0,0-.221-.016,1.72,1.72,0,0,0-.232.033,1.185,1.185,0,0,0-.718.533,1.257,1.257,0,0,0,.424,1.644A1.151,1.151,0,0,0,10.624,317.2Z" transform="translate(-8.292 -271.817)" fill="#31b781"/>
        <path id="Path_3127" data-name="Path 3127" d="M35,0A34.979,34.979,0,0,0,6.267,15.053c-.023.027-.055.043-.075.073s-.02.057-.036.083A34.794,34.794,0,0,0,0,35l.12,2.41.066,1.2.181,1.193A1.158,1.158,0,0,0,1.7,40.8a1.184,1.184,0,0,0,.98-1.312l-.171-1.113-.059-1.125L2.333,35A32.462,32.462,0,0,1,7.482,17.434l8.657,5.981A22.1,22.1,0,0,0,33.833,57.11v10.5a32.588,32.588,0,0,1-7.876-1.235,31.834,31.834,0,0,1-8.325-3.739,31.342,31.342,0,0,1-6.969-5.9A15.24,15.24,0,0,1,9.2,54.981c-.451-.616-.927-1.215-1.361-1.842a34.9,34.9,0,0,1-2.243-3.989L5.1,48.135a1.2,1.2,0,0,0-1.512-.608,1.142,1.142,0,0,0-.624,1.547l.523,1.088a37.216,37.216,0,0,0,2.406,4.274c.464.673.972,1.316,1.456,1.975a16.927,16.927,0,0,0,1.572,1.881,33.671,33.671,0,0,0,7.465,6.316,34.164,34.164,0,0,0,8.924,4.007A37.192,37.192,0,0,0,35,70a34.866,34.866,0,0,0,24.1-9.657.322.322,0,0,0,.178-.17A34.974,34.974,0,0,0,35,0ZM67.635,33.837H57.106A22.159,22.159,0,0,0,36.166,12.9V2.367A32.7,32.7,0,0,1,67.635,33.837ZM8.8,15.512A32.641,32.641,0,0,1,33.832,2.367V12.9a22.115,22.115,0,0,0-16.369,8.6ZM15.166,35A19.833,19.833,0,1,1,35,54.836,19.833,19.833,0,0,1,15.166,35ZM49.453,51.772l7.273,7.6a32.525,32.525,0,0,1-20.56,8.271V57.11A22.043,22.043,0,0,0,49.453,51.772Zm8.955,5.981-7.275-7.6A22.056,22.056,0,0,0,57.106,36.17H67.635a32.547,32.547,0,0,1-9.227,21.583Z" transform="translate(0 -0.004)" fill="#31b781"/>
        <path id="Path_3128" data-name="Path 3128" d="M186.632,164.526a1.166,1.166,0,0,0,1.167-1.167v-1.994a4.611,4.611,0,0,0-2.416-3.989l-5.751-3.1v-.882a9.524,9.524,0,0,0,1.7-3.086.676.676,0,0,1,.2-.358,2.976,2.976,0,0,0,.956-2.167v-1.754a2.923,2.923,0,0,0-.348-1.378l-.11-.207a.577.577,0,0,1-.072-.277v-2.523a5.274,5.274,0,0,0-5.409-5.115h-3.182a5.274,5.274,0,0,0-5.409,5.115v2.523a.583.583,0,0,1-.074.28l-.107.2a2.929,2.929,0,0,0-.35,1.382v1.754a2.976,2.976,0,0,0,.958,2.168.683.683,0,0,1,.2.358,9.547,9.547,0,0,0,1.7,3.086v.881l-5.768,3.11a4.6,4.6,0,0,0-2.4,3.98v1.994a1.166,1.166,0,0,0,1.167,1.167Zm-2.374-5.105a2.241,2.241,0,0,1,1.207,1.945v.827h-9.333V158.15l2.58-1.72Zm-14.278-11.18a.625.625,0,0,1-.212-.458v-1.754a.583.583,0,0,1,.074-.28l.107-.2a2.929,2.929,0,0,0,.35-1.382v-2.523a2.943,2.943,0,0,1,3.076-2.782h3.182a2.943,2.943,0,0,1,3.076,2.782v2.523a2.923,2.923,0,0,0,.348,1.379l.11.207a.577.577,0,0,1,.072.277v1.754a.63.63,0,0,1-.212.459,3,3,0,0,0-.894,1.57,7.873,7.873,0,0,1-1.416,2.345,1.627,1.627,0,0,0-.342,1v1.416l-2.333,1.555-2.333-1.555v-1.416a1.636,1.636,0,0,0-.348-1,7.854,7.854,0,0,1-1.41-2.336A3,3,0,0,0,169.981,148.241Zm-5.515,13.125a2.233,2.233,0,0,1,1.19-1.936l5.563-3,2.581,1.72v4.042h-9.333Z" transform="translate(-139.967 -117.86)" fill="#31b781"/>
      </g>
    </g>
  </g>
</svg>
