<svg xmlns="http://www.w3.org/2000/svg" width="70" height="69.998" viewBox="0 0 70 69.998">
  <g id="press-inquiries-icon" transform="translate(0 -0.004)">
    <g id="Group_2134" data-name="Group 2134" transform="translate(1.167 1.17)">
      <circle id="Ellipse_4" data-name="Ellipse 4" cx="9.333" cy="9.333" r="9.333" transform="translate(25.667 5.833)" fill="#7f6e5d"/>
      <circle id="Ellipse_5" data-name="Ellipse 5" cx="3.5" cy="3.5" r="3.5" transform="translate(31.5 10.5)" fill="#e6e7e8"/>
      <path id="Path_2401" data-name="Path 2401" d="M229.4,139.446v1.75a9.272,9.272,0,0,0,9.333,0v-1.75a4.367,4.367,0,0,0-4.667-3.99,4.989,4.989,0,0,0-3.29,1.178A3.672,3.672,0,0,0,229.4,139.446Z" transform="translate(-199.067 -117.956)" fill="#e4c05c"/>
      <g id="Group_2131" data-name="Group 2131" transform="translate(0 0)">
        <path id="Path_2402" data-name="Path 2402" d="M14.743,7.529h-.21a7,7,0,0,0-7,7v17.5H26.2V7.529Z" transform="translate(-7.533 -7.529)" fill="#cbe8dc"/>
        <path id="Path_2403" data-name="Path 2403" d="M60.269,7.529a7.2,7.2,0,0,1,6.79,7.292V72.862A2.34,2.34,0,0,0,69.393,75.2h35a2.34,2.34,0,0,0,2.333-2.333V14.529a7.005,7.005,0,0,0-7-7Z" transform="translate(-53.059 -7.529)" fill="#cbe8dc"/>
      </g>
      <path id="Path_2404" data-name="Path 2404" d="M85.869,7.529a7.2,7.2,0,0,1,6.79,7.292V72.862A2.34,2.34,0,0,0,94.993,75.2h33.833a2.34,2.34,0,0,0,2.333-2.333V14.529a7.005,7.005,0,0,0-7-7Z" transform="translate(-75.159 -7.529)" fill="#e4f8f0"/>
      <circle id="Ellipse_7" data-name="Ellipse 7" cx="3.5" cy="3.5" r="3.5" transform="translate(31.5 10.5)" fill="#e4f8f0"/>
      <g id="Group_2132" data-name="Group 2132" transform="translate(30.333 17.488)">
        <path id="Path_2406" data-name="Path 2406" d="M242.6,231.728v11.667a2.333,2.333,0,0,1-4.667,0V231.728a2.333,2.333,0,1,1,4.667,0Z" transform="translate(-236.766 -216.55)" fill="#f1f8f5"/>
        <path id="Path_2407" data-name="Path 2407" d="M301.234,212.329v21L272.067,227.5v-9.333Z" transform="translate(-266.234 -201.817)" fill="#f1f8f5"/>
        <path id="Path_2408" data-name="Path 2408" d="M473,189.062V212.4a2.333,2.333,0,0,1-4.667,0V189.062a2.333,2.333,0,0,1,4.667,0Z" transform="translate(-435.666 -179.717)" fill="#f1f8f5"/>
      </g>
      <g id="Group_2133" data-name="Group 2133">
        <path id="Path_2409" data-name="Path 2409" d="M83.967,72.862V12.2A4.68,4.68,0,0,0,79.3,7.529H75.8c1.283,0,4.667,3.383,4.667,4.667V72.862A2.34,2.34,0,0,0,82.8,75.2h3.5A2.34,2.34,0,0,1,83.967,72.862Z" transform="translate(-66.467 -7.529)" fill="#fff"/>
        <path id="Path_2410" data-name="Path 2410" d="M18.033,7.529h-3.5a7,7,0,0,0-7,7v17.5h3.5v-17.5a7,7,0,0,1,7-7Z" transform="translate(-7.533 -7.529)" fill="#fff"/>
      </g>
      <path id="Path_4881" data-name="Path 4881" d="M-15.466-7.26l-.858-.143v-.77h2.761l3.036,4.686.616,1.32V-7.26l-.935-.143v-.77H-8.03v.77l-.836.143V0h-1.617l-3.223-5.027-.726-1.452V-.847l1.166.121V0h-3.058V-.726l.858-.121Zm8.613.011L-7.711-7.4v-.77h6.017l.143,1.947H-2.42L-2.8-7.337l-2.167-.11v2.86L-3.63-4.62l.2-.9h.759v2.761h-.759l-.187-.957-1.353-.033V-.759l2.409-.154.671-1.419.935.264L-1.221,0H-7.7V-.726l.847-.11Zm5.588-.924H2.244v.77l-.913.154L2.64-2.4l.209,1.023L3.036-2.4,4.158-6.314l-.319-.935L3.146-7.4v-.77H6.82v.77l-1.045.154L7.084-2.4l.242,1.111L7.513-2.4,8.69-7.249,7.755-7.4v-.77h2.673v.77l-.682.154L7.711.055H6.028L4.609-4.84,3.267.055H1.606l-2.233-7.3L-1.265-7.4ZM13.321.121A5.883,5.883,0,0,1,12.2.022q-.512-.1-1.073-.264A2.7,2.7,0,0,0,10.6-.363l.1-2.057h1.023L12-1.012a1.008,1.008,0,0,0,.446.253,2.426,2.426,0,0,0,.775.11,1.48,1.48,0,0,0,1.007-.3,1.031,1.031,0,0,0,.336-.814.986.986,0,0,0-.215-.633,2.153,2.153,0,0,0-.594-.5,10.747,10.747,0,0,0-1.04-.522,4.85,4.85,0,0,1-1.469-1.007,2.2,2.2,0,0,1-.6-1.612,2.061,2.061,0,0,1,.319-1.122,2.238,2.238,0,0,1,.968-.814,3.763,3.763,0,0,1,1.617-.308,5.9,5.9,0,0,1,1.017.077q.434.077.93.209a1.854,1.854,0,0,0,.407.1L15.84-5.929h-1l-.253-1.353a.718.718,0,0,0-.347-.181,2.043,2.043,0,0,0-.6-.082,1.277,1.277,0,0,0-.908.286.969.969,0,0,0-.3.737,1.036,1.036,0,0,0,.253.693,2.266,2.266,0,0,0,.61.5q.358.2,1.095.566a8.75,8.75,0,0,1,1.017.578,2.693,2.693,0,0,1,.743.753,1.9,1.9,0,0,1,.308,1.078,2.5,2.5,0,0,1-.291,1.166,2.271,2.271,0,0,1-1,.935A3.939,3.939,0,0,1,13.321.121Z" transform="translate(35.834 19.834)" fill="#31b781"/>
    </g>
    <g id="Group_2136" data-name="Group 2136" transform="translate(0 0.004)">
      <path id="Path_2411" data-name="Path 2411" d="M102.4,206.462V162.129h2.333v44.333Z" transform="translate(-88.4 -139.964)" fill="#fff"/>
      <g id="Group_2135" data-name="Group 2135">
        <path id="Path_2412" data-name="Path 2412" d="M103.122,411.835a.736.736,0,0,0,.21.069,1.7,1.7,0,0,0,.233.023,1.225,1.225,0,0,0,.828-.338,1.15,1.15,0,0,0-.385-1.9,1.167,1.167,0,0,0-1.272,1.9l.175.14A.878.878,0,0,0,103.122,411.835Z" transform="translate(-88.399 -353.595)" fill="#31b781"/>
        <path id="Path_2413" data-name="Path 2413" d="M66.5,24.5A3.5,3.5,0,0,0,63,28v.226l-4.667,1.015V8.17h0A8.176,8.176,0,0,0,50.167,0h-42c-.009,0-.017.005-.027.005A8.154,8.154,0,0,0,0,8.171v17.5a1.166,1.166,0,0,0,1.167,1.167H14V52.5a1.167,1.167,0,0,0,2.333,0V8.462a8.59,8.59,0,0,0-2.577-6.125h36.41A5.84,5.84,0,0,1,56,8.171V29.75L38.472,33.561a3.491,3.491,0,0,0-6.972.275h-7a1.167,1.167,0,1,0,0,2.333h7v3.5h-7A1.167,1.167,0,1,0,24.5,42h7v3.5h-7a1.167,1.167,0,1,0,0,2.333h7.91a3.474,3.474,0,0,0,6.062-2.058l2.361.513v2.163a3.5,3.5,0,0,0,2.745,3.415l5.831,1.293a3.493,3.493,0,0,0,4.257-3.413v-.668L56,49.588V66.5a1.167,1.167,0,0,1-1.167,1.167H17.5A1.168,1.168,0,0,1,16.333,66.5V61.836a1.167,1.167,0,0,0-2.333,0V66.5A3.5,3.5,0,0,0,17.5,70H54.833a3.5,3.5,0,0,0,3.5-3.5V50.1L63,51.11v.226a3.5,3.5,0,1,0,7,0V28A3.5,3.5,0,0,0,66.5,24.5ZM14,8.462V24.5H2.333V8.171A5.834,5.834,0,0,1,8.341,2.337,6.037,6.037,0,0,1,14,8.462ZM36.167,45.5a1.167,1.167,0,0,1-2.333,0V33.836a1.167,1.167,0,0,1,2.333,0Zm15.167,4.246a1.163,1.163,0,0,1-.436.913,1.128,1.128,0,0,1-.979.223l-5.825-1.292a1.172,1.172,0,0,1-.926-1.138V46.8l8.167,1.775ZM38.5,43.4V35.944L63,30.618v18.1Zm29.167,7.941a1.167,1.167,0,0,1-2.333,0V28a1.167,1.167,0,0,1,2.333,0Z" transform="translate(0 -0.004)" fill="#31b781"/>
        <path id="Path_2415" data-name="Path 2415" d="M171.834,377.8h14a1.167,1.167,0,0,0,0-2.333h-14a1.167,1.167,0,0,0,0,2.333Z" transform="translate(-147.334 -324.131)" fill="#31b781"/>
        <path id="Path_2416" data-name="Path 2416" d="M171.834,420.463h23.333a1.167,1.167,0,1,0,0-2.333H171.834a1.167,1.167,0,1,0,0,2.333Z" transform="translate(-147.334 -360.964)" fill="#31b781"/>
      </g>
    </g>
  </g>
</svg>
