<svg id="customer-support-icon" xmlns="http://www.w3.org/2000/svg" width="70" height="70" viewBox="0 0 70 70">
  <g id="Group_2370" data-name="Group 2370" transform="translate(1.167 1.167)">
    <path id="Path_3129" data-name="Path 3129" d="M237.266,44V62.666A2.34,2.34,0,0,1,234.933,65H225.6v5.833l-3.5-2.5L217.433,65H197.6a2.34,2.34,0,0,1-2.333-2.333V44a2.34,2.34,0,0,1,2.333-2.333h37.333A2.34,2.34,0,0,1,237.266,44Z" transform="translate(-169.599 -36.999)" fill="#cbe8dc"/>
    <g id="Group_2366" data-name="Group 2366" transform="translate(0 4.667)">
      <path id="Path_3130" data-name="Path 3130" d="M233.766,44V62.666A2.34,2.34,0,0,1,231.433,65H222.1v3.337L217.433,65H197.6a2.34,2.34,0,0,1-2.333-2.333V44a2.34,2.34,0,0,1,2.333-2.333h33.833A2.34,2.34,0,0,1,233.766,44Z" transform="translate(-169.599 -41.666)" fill="#f1f8f5"/>
      <path id="Path_3131" data-name="Path 3131" d="M340.4,438.912v2.263H314.733v-2.263a3.884,3.884,0,0,1,1.983-3.372l6.72-3.733a.568.568,0,0,0,.257-.338h7.747a.568.568,0,0,0,.257.338l6.72,3.733A3.884,3.884,0,0,1,340.4,438.912Z" transform="translate(-272.733 -378.176)" fill="#f1f8f5"/>
      <path id="Path_3132" data-name="Path 3132" d="M22.7,438.381a.54.54,0,0,0,.268.467c1.12.688,2.625,1.435,3.733,2.123a13.918,13.918,0,0,1,3.162,2.193,3.931,3.931,0,0,1,1,2.59v1.388H7.533v-1.388c0-1.867,1.365-3.057,2.812-3.943,1.575-.957,3.512-2.007,5.087-2.963a.541.541,0,0,0,.268-.467Z" transform="translate(-7.533 -384.143)" fill="#f1f8f5"/>
    </g>
    <g id="Group_2367" data-name="Group 2367" transform="translate(0)">
      <path id="Path_3133" data-name="Path 3133" d="M32.686,308.966h-5.95a.558.558,0,0,0-.5.572v.6a2.876,2.876,0,0,1-3,2.742h-1a3.351,3.351,0,0,1-1.248-.245,2.734,2.734,0,0,1-1.75-2.5v-.595a.555.555,0,0,0-.56-.572h-5.9a1.128,1.128,0,0,1-.957-1.75,24.378,24.378,0,0,0,3.442-8.33,11.692,11.692,0,0,0,.257-2.462,7.293,7.293,0,0,1,2.112-5.157,7.079,7.079,0,0,1,3.36-1.913,6.661,6.661,0,0,1,1.75-.222,7.176,7.176,0,0,1,5.11,2.135,7.293,7.293,0,0,1,2.112,5.157,11.692,11.692,0,0,0,.257,2.462,24.375,24.375,0,0,0,3.442,8.33,1.133,1.133,0,0,1-.968,1.75Z" transform="translate(-11.067 -250.633)" fill="#cbe8dc"/>
      <path id="Path_3134" data-name="Path 3134" d="M49.533,9.866V28.533A2.34,2.34,0,0,1,47.2,30.866H27.366L19.2,36.7V30.866H9.866a2.34,2.34,0,0,1-2.333-2.333V9.866A2.34,2.34,0,0,1,9.866,7.533H47.2A2.34,2.34,0,0,1,49.533,9.866Z" transform="translate(-7.533 -7.533)" fill="#cbe8dc"/>
    </g>
    <path id="Path_3135" data-name="Path 3135" d="M46.033,9.866V28.533A2.34,2.34,0,0,1,43.7,30.866H23.866L19.2,34.2V30.866H9.866a2.34,2.34,0,0,1-2.333-2.333V9.866A2.34,2.34,0,0,1,9.866,7.533H43.7A2.34,2.34,0,0,1,46.033,9.866Z" transform="translate(-7.533 -7.533)" fill="#f1f8f5"/>
    <path id="Path_3136" data-name="Path 3136" d="M371.4,298.6V300.6a2.085,2.085,0,0,1-.642,1.493,2.093,2.093,0,0,0-.607,1.1,9.919,9.919,0,0,1-1.785,3.185.558.558,0,0,0-.117.327v1.738a.587.587,0,0,0,.023.152L364.4,312.46l-3.873-3.873a.593.593,0,0,0,.023-.152V306.7a.557.557,0,0,0-.117-.327,9.917,9.917,0,0,1-1.785-3.185,2.093,2.093,0,0,0-.607-1.1,2.085,2.085,0,0,1-.642-1.493v-2a2.061,2.061,0,0,1,.233-.945l.117-.233a2.061,2.061,0,0,0,.233-.945v-2.858a4.578,4.578,0,0,1,4.667-4.492h3.5a4.578,4.578,0,0,1,4.667,4.492v2.858a2.061,2.061,0,0,0,.233.945l.117.233A2.064,2.064,0,0,1,371.4,298.6Z" transform="translate(-309.568 -250.627)" fill="#cbe8dc"/>
    <g id="Group_2368" data-name="Group 2368" transform="translate(0.56 38.5)">
      <path id="Path_3137" data-name="Path 3137" d="M29.186,310.367H23.294a.555.555,0,0,0-.56.572v.6a2.734,2.734,0,0,1-1.75,2.5,2.734,2.734,0,0,1-1.75-2.5v-.6a.555.555,0,0,0-.56-.572h-5.9a1.128,1.128,0,0,1-.957-1.75,24.378,24.378,0,0,0,3.442-8.33,11.692,11.692,0,0,0,.257-2.462,7.293,7.293,0,0,1,2.112-5.157,7.079,7.079,0,0,1,3.36-1.913,7.078,7.078,0,0,1,3.36,1.913,7.293,7.293,0,0,1,2.112,5.157,11.692,11.692,0,0,0,.257,2.462,24.375,24.375,0,0,0,3.442,8.33,1.133,1.133,0,0,1-.968,1.75Z" transform="translate(-11.627 -290.533)" fill="#e4f8f0"/>
      <path id="Path_3138" data-name="Path 3138" d="M367.9,298.605V300.6a2.085,2.085,0,0,1-.642,1.493,2.093,2.093,0,0,0-.607,1.1,9.918,9.918,0,0,1-1.785,3.185.558.558,0,0,0-.117.327v1.738a.587.587,0,0,0,.023.152l-2.124,2.123-2.123-2.123a.594.594,0,0,0,.023-.152V306.7a.557.557,0,0,0-.117-.327,9.917,9.917,0,0,1-1.785-3.185,2.093,2.093,0,0,0-.607-1.1,2.084,2.084,0,0,1-.642-1.493v-1.995a2.061,2.061,0,0,1,.233-.945l.117-.233a2.061,2.061,0,0,0,.233-.945v-2.858a4.67,4.67,0,0,1,9.333,0v2.858a2.06,2.06,0,0,0,.233.945l.117.233A2.064,2.064,0,0,1,367.9,298.605Z" transform="translate(-310.128 -289.132)" fill="#e4f8f0"/>
    </g>
    <g id="Group_2369" data-name="Group 2369">
      <path id="Path_3139" data-name="Path 3139" d="M11.033,442.145c0-1.867,1.365-3.057,2.812-3.943,1.575-.957,3.512-2.007,5.087-2.963a.541.541,0,0,0,.268-.467.555.555,0,0,0-.56-.572h-3.5a.555.555,0,0,1,.56.572.54.54,0,0,1-.268.467c-1.575.957-3.512,2.007-5.087,2.963-1.447.887-2.812,2.077-2.812,3.943v1.388h3.5Z" transform="translate(-7.533 -375.866)" fill="#fff"/>
      <path id="Path_3140" data-name="Path 3140" d="M9.866,30.866h3.5a2.34,2.34,0,0,1-2.333-2.333V9.866a2.34,2.34,0,0,1,2.333-2.333h-3.5A2.34,2.34,0,0,0,7.533,9.866V28.533A2.34,2.34,0,0,0,9.866,30.866Z" transform="translate(-7.533 -7.533)" fill="#fff"/>
      <path id="Path_3141" data-name="Path 3141" d="M320.216,312.658l6.72-3.733a.568.568,0,0,0,.257-.338.593.593,0,0,0,.023-.152V306.7a.557.557,0,0,0-.117-.327,9.917,9.917,0,0,1-1.785-3.185,2.093,2.093,0,0,0-.607-1.1,2.085,2.085,0,0,1-.642-1.493v-2a2.061,2.061,0,0,1,.233-.945l.117-.233a2.061,2.061,0,0,0,.233-.945v-2.858a4.578,4.578,0,0,1,4.667-4.492h-3.5a4.578,4.578,0,0,0-4.667,4.492v2.858a2.061,2.061,0,0,1-.233.945l-.117.233a2.061,2.061,0,0,0-.233.945v2a2.085,2.085,0,0,0,.642,1.493,2.093,2.093,0,0,1,.607,1.1,9.918,9.918,0,0,0,1.785,3.185.558.558,0,0,1,.117.327v1.738a.587.587,0,0,1-.023.152.568.568,0,0,1-.257.338l-6.72,3.733a3.884,3.884,0,0,0-1.983,3.372v2.263h3.5V316.03A3.884,3.884,0,0,1,320.216,312.658Z" transform="translate(-272.733 -250.627)" fill="#fff"/>
      <path id="Path_3142" data-name="Path 3142" d="M201.1,182.867a2.34,2.34,0,0,1-2.333-2.333V178.2h-3.5v2.333a2.34,2.34,0,0,0,2.333,2.333h3.5Z" transform="translate(-169.599 -154.867)" fill="#fff"/>
      <path id="Path_3143" data-name="Path 3143" d="M18.756,298.886a11.692,11.692,0,0,0,.257-2.462,7.293,7.293,0,0,1,2.112-5.157,7.077,7.077,0,0,1,3.355-1.912,7.164,7.164,0,0,0-1.745-.223,6.665,6.665,0,0,0-1.75.222,7.078,7.078,0,0,0-3.36,1.913,7.293,7.293,0,0,0-2.112,5.157,11.692,11.692,0,0,1-.257,2.462,24.38,24.38,0,0,1-3.442,8.33,1.128,1.128,0,0,0,.957,1.75h3.5a1.128,1.128,0,0,1-.957-1.75A24.38,24.38,0,0,0,18.756,298.886Z" transform="translate(-11.067 -250.633)" fill="#fff"/>
    </g>
  </g>
  <g id="Group_2372" data-name="Group 2372" transform="translate(0)">
    <path id="Path_3144" data-name="Path 3144" d="M2.333,25.6V44.267H0V25.6Z" transform="translate(0 -22.1)" fill="#fff"/>
    <g id="Group_2371" data-name="Group 2371">
      <path id="Path_3145" data-name="Path 3145" d="M55.5,42.667H43.834a1.167,1.167,0,1,0,0,2.333H55.5a1.167,1.167,0,1,0,0-2.333Z" transform="translate(-36.834 -36.834)" fill="#31b781"/>
      <path id="Path_3146" data-name="Path 3146" d="M177.3,45a1.167,1.167,0,1,0,0-2.333h-14a1.167,1.167,0,1,0,0,2.333Z" transform="translate(-139.967 -36.834)" fill="#31b781"/>
      <path id="Path_3147" data-name="Path 3147" d="M43.834,130.333H55.5a1.167,1.167,0,0,0,0-2.333H43.834a1.167,1.167,0,0,0,0,2.333Z" transform="translate(-36.834 -110.5)" fill="#31b781"/>
      <path id="Path_3148" data-name="Path 3148" d="M177.3,128h-14a1.167,1.167,0,0,0,0,2.333h14a1.167,1.167,0,0,0,0-2.333Z" transform="translate(-139.967 -110.5)" fill="#31b781"/>
      <path id="Path_3149" data-name="Path 3149" d="M110.933,86.5a1.166,1.166,0,0,0,1.167,1.167h21a1.167,1.167,0,0,0,0-2.333h-21a1.166,1.166,0,0,0-1.167,1.167Z" transform="translate(-95.766 -73.667)" fill="#31b781"/>
      <path id="Path_3150" data-name="Path 3150" d="M365.034,68.267h-14a1.167,1.167,0,1,0,0,2.333h14a1.167,1.167,0,1,0,0-2.333Z" transform="translate(-302.034 -58.934)" fill="#31b781"/>
      <path id="Path_3151" data-name="Path 3151" d="M365.034,153.6h-14a1.167,1.167,0,0,0,0,2.333h14a1.167,1.167,0,0,0,0-2.333Z" transform="translate(-302.034 -132.6)" fill="#31b781"/>
      <path id="Path_3152" data-name="Path 3152" d="M365.034,110.933h-14a1.167,1.167,0,1,0,0,2.333h14a1.167,1.167,0,1,0,0-2.333Z" transform="translate(-302.034 -95.766)" fill="#31b781"/>
      <path id="Path_3153" data-name="Path 3153" d="M43.834,87.667H48.5a1.167,1.167,0,0,0,0-2.333H43.834a1.167,1.167,0,1,0,0,2.333Z" transform="translate(-36.834 -73.667)" fill="#31b781"/>
      <path id="Path_3154" data-name="Path 3154" d="M332.616,305.278l-6.4-3.566v-1.171a10.943,10.943,0,0,0,1.879-3.483.957.957,0,0,1,.271-.5,3.255,3.255,0,0,0,1-2.332v-1.994a3.247,3.247,0,0,0-.363-1.483l-.12-.228a.884.884,0,0,1-.1-.407V287.25a5.752,5.752,0,0,0-5.833-5.653h-3.5a5.752,5.752,0,0,0-5.833,5.653v2.868a.875.875,0,0,1-.1.4l-.122.235a3.234,3.234,0,0,0-.362,1.48v1.994a3.261,3.261,0,0,0,1,2.334.959.959,0,0,1,.269.495,10.938,10.938,0,0,0,1.879,3.483v1.171l-6.418,3.576a5.089,5.089,0,0,0-2.566,4.375v2.266a1.166,1.166,0,0,0,1.167,1.167h25.667a1.166,1.166,0,0,0,1.167-1.167v-2.266A5.1,5.1,0,0,0,332.616,305.278Zm-16.966-10.4a.9.9,0,0,1-.285-.65v-1.994a.887.887,0,0,1,.1-.4l.122-.235a3.235,3.235,0,0,0,.362-1.48V287.25a3.417,3.417,0,0,1,3.5-3.32h3.5a3.417,3.417,0,0,1,3.5,3.32v2.868a3.247,3.247,0,0,0,.363,1.483l.12.228a.9.9,0,0,1,.1.407v1.994a.9.9,0,0,1-.285.65,3.287,3.287,0,0,0-.937,1.7,9.022,9.022,0,0,1-1.592,2.74,1.7,1.7,0,0,0-.337,1.015v1.433l-2.683,2.683-2.683-2.683V300.33a1.713,1.713,0,0,0-.346-1.028,8.97,8.97,0,0,1-1.583-2.728,3.283,3.283,0,0,0-.937-1.7Zm-6.118,14.784a2.709,2.709,0,0,1,1.384-2.346l6.329-3.526,2.787,2.787v4.184h-10.5Zm23.333,1.1h-10.5v-4.184l2.787-2.787,6.311,3.515a2.718,2.718,0,0,1,1.4,2.356Z" transform="translate(-265.199 -243.096)" fill="#31b781"/>
      <path id="Path_3155" data-name="Path 3155" d="M1.167,313.1H24.5a1.166,1.166,0,0,0,1.167-1.167v-1.385a5.053,5.053,0,0,0-1.3-3.371,10.614,10.614,0,0,0-2.662-1.96c-.254-.148-.506-.3-.749-.445-.525-.327-1.134-.667-1.751-1h3.583a2.32,2.32,0,0,0,2.067-1.253,2.239,2.239,0,0,0-.149-2.327,23.4,23.4,0,0,1-3.254-7.915,10.63,10.63,0,0,1-.23-2.214,8.441,8.441,0,0,0-2.454-5.976,8.335,8.335,0,0,0-11.869,0,8.441,8.441,0,0,0-2.454,5.976,10.614,10.614,0,0,1-.229,2.208,23.431,23.431,0,0,1-3.255,7.918,2.239,2.239,0,0,0-.153,2.329,2.32,2.32,0,0,0,2.067,1.253H6.542c-.205.119-.412.236-.619.354-.88.5-1.758,1.006-2.546,1.483C2.542,306.111,0,307.652,0,310.549v1.385A1.166,1.166,0,0,0,1.167,313.1Zm1.7-11.576A25.854,25.854,0,0,0,6.5,292.758a13.022,13.022,0,0,0,.28-2.7,6.117,6.117,0,0,1,1.78-4.333,6,6,0,0,1,8.552,0,6.116,6.116,0,0,1,1.78,4.333,13.048,13.048,0,0,0,.281,2.7,24.913,24.913,0,0,0,3.619,8.67h-5.9a1.617,1.617,0,0,0-1.7,1.609,1.091,1.091,0,0,0-.026.129v.595a1.72,1.72,0,0,1-1.832,1.575h-1a1.72,1.72,0,0,1-1.832-1.575v-.595a1.1,1.1,0,0,0-.025-.126,1.619,1.619,0,0,0-1.7-1.612Zm-.537,9.023c0-1.095.695-2,2.254-2.947.772-.468,1.634-.96,2.5-1.454.483-.277.964-.553,1.433-.826a4.184,4.184,0,0,0,3.817,2.354h1a4.185,4.185,0,0,0,3.827-2.37c.215.119.428.237.647.357.67.367,1.344.736,1.914,1.09.261.163.533.321.808.481a8.692,8.692,0,0,1,2.1,1.5,2.72,2.72,0,0,1,.7,1.814v.219h-21v-.219Z" transform="translate(0 -243.101)" fill="#31b781"/>
      <path id="Path_3156" data-name="Path 3156" d="M1.216,87.666a1.229,1.229,0,0,0,.828-.338,1.183,1.183,0,0,0,0-1.657l-.175-.14a.888.888,0,0,0-.21-.105.741.741,0,0,0-.21-.07,1.706,1.706,0,0,0-.233-.023,1.225,1.225,0,0,0-.828.338,1.2,1.2,0,0,0,0,1.657,1.208,1.208,0,0,0,.385.245A1.163,1.163,0,0,0,1.216,87.666Z" transform="translate(-0.05 -73.666)" fill="#31b781"/>
      <path id="Path_3157" data-name="Path 3157" d="M66.5,4.667H44.333V3.5a3.5,3.5,0,0,0-3.5-3.5H3.5A3.5,3.5,0,0,0,0,3.5V8.167a1.167,1.167,0,1,0,2.333,0V3.5A1.167,1.167,0,0,1,3.5,2.333H40.833A1.167,1.167,0,0,1,42,3.5V22.167a1.167,1.167,0,0,1-1.167,1.167H21a1.166,1.166,0,0,0-.678.218L14,28.066V24.5a1.166,1.166,0,0,0-1.167-1.167H3.5a1.167,1.167,0,0,1-1.167-1.167V17.5A1.167,1.167,0,0,0,0,17.5v4.667a3.5,3.5,0,0,0,3.5,3.5h8.167v4.667a1.166,1.166,0,0,0,1.844.949l7.863-5.616h4.293v1.167a3.5,3.5,0,0,0,3.5,3.5h19.46l7.863,5.616a1.16,1.16,0,0,0,.678.218,1.182,1.182,0,0,0,.534-.129A1.167,1.167,0,0,0,58.333,35V30.333H66.5a3.5,3.5,0,0,0,3.5-3.5V8.167A3.5,3.5,0,0,0,66.5,4.667Zm1.167,22.167A1.167,1.167,0,0,1,66.5,28H57.167A1.166,1.166,0,0,0,56,29.167v3.566l-6.322-4.515A1.167,1.167,0,0,0,49,28H29.167A1.167,1.167,0,0,1,28,26.833V25.667H40.833a3.5,3.5,0,0,0,3.5-3.5V7H66.5a1.167,1.167,0,0,1,1.167,1.167V26.833Z" transform="translate(0)" fill="#31b781"/>
    </g>
  </g>
</svg>
