<?xml version="1.0" encoding="UTF-8" standalone="no"?>
<svg
   xmlns:dc="http://purl.org/dc/elements/1.1/"
   xmlns:cc="http://creativecommons.org/ns#"
   xmlns:rdf="http://www.w3.org/1999/02/22-rdf-syntax-ns#"
   xmlns:svg="http://www.w3.org/2000/svg"
   xmlns="http://www.w3.org/2000/svg"
   xmlns:sodipodi="http://sodipodi.sourceforge.net/DTD/sodipodi-0.dtd"
   xmlns:inkscape="http://www.inkscape.org/namespaces/inkscape"
   fill="#2eac79"
   version="1.1"
   id="Layer_1"
   x="0px"
   y="0px"
   viewBox="0 0 455 455"
   style="enable-background:new 0 0 455 455;"
   xml:space="preserve"
   sodipodi:docname="play.svg"
   inkscape:version="1.0.2 (e86c870879, 2021-01-15, custom)"><metadata
   id="metadata9"><rdf:RDF><cc:Work
       rdf:about=""><dc:format>image/svg+xml</dc:format><dc:type
         rdf:resource="http://purl.org/dc/dcmitype/StillImage" /><dc:title></dc:title></cc:Work></rdf:RDF></metadata><defs
   id="defs7" /><sodipodi:namedview
   pagecolor="#ffffff"
   bordercolor="#666666"
   borderopacity="1"
   objecttolerance="10"
   gridtolerance="10"
   guidetolerance="10"
   inkscape:pageopacity="0"
   inkscape:pageshadow="2"
   inkscape:window-width="1920"
   inkscape:window-height="1017"
   id="namedview5"
   showgrid="false"
   inkscape:zoom="1.3209687"
   inkscape:cx="173.84229"
   inkscape:cy="227.5"
   inkscape:window-x="-8"
   inkscape:window-y="-8"
   inkscape:window-maximized="1"
   inkscape:current-layer="Layer_1" />
<path
   d="M227.5,0C101.855,0,0,101.855,0,227.5S101.855,455,227.5,455S455,353.145,455,227.5S353.145,0,227.5,0z M166.062,321.575  V133.425L328.938,227.5L166.062,321.575z"
   id="path2" />
<path
   style="opacity:1;fill:#ffffff;stroke:#ffffff;stroke-width:2.27257;stroke-linejoin:round;fill-opacity:1;stroke-opacity:1"
   d="m 166.27209,227.5 c 0,-53.19712 0.28539,-93.13129 0.66454,-92.98731 1.67819,0.63723 160.56161,92.65318 160.56069,92.98731 -9.2e-4,0.33415 -158.88513,92.35014 -160.56138,92.98731 -0.37823,0.14378 -0.66385,-39.86447 -0.66385,-92.98731 z"
   id="path27" /><rect
   style="opacity:1;fill:#ffffff;fill-opacity:1;stroke:none;stroke-width:3.002;stroke-linejoin:round"
   id="rect852"
   width="116.58111"
   height="128.69344"
   x="-265.71408"
   y="-12.869344" /></svg>
