<svg xmlns="http://www.w3.org/2000/svg" width="110" height="110" viewBox="0 0 110 110">
  <g id="business-getting-started-icon-2" transform="translate(-5320 -1996)">
    <g id="Ellipse_261" data-name="Ellipse 261" transform="translate(5320 1996)" fill="none" stroke="#edf0f5" stroke-width="2" stroke-dasharray="60">
      <circle cx="55" cy="55" r="55" stroke="none"/>
      <circle cx="55" cy="55" r="54" fill="none"/>
    </g>
    <g id="business-getting-started-icon-2-2" data-name="business-getting-started-icon-2" transform="translate(5291.361 1999)">
      <path id="Path_4818" data-name="Path 4818" d="M74.715,95.75H70.322a4.688,4.688,0,0,0-4.683,4.683v29.632h4.393V100.433a4.688,4.688,0,0,1,4.683-4.683Z" transform="translate(-10.243 -67.218)" fill="#31b781" opacity="0.15"/>
      <path id="Path_4819" data-name="Path 4819" d="M70.032,346.1v-4.032H65.639V346.1a4.688,4.688,0,0,0,4.683,4.683h4.393A4.688,4.688,0,0,1,70.032,346.1Z" transform="translate(-10.243 -277.466)" fill="#31b781" opacity="0.15"/>
      <path id="Path_4820" data-name="Path 4820" d="M106.468,26.775h-5.632v-4.4A5.382,5.382,0,0,0,95.46,17h-17.5a.884.884,0,0,0-.146.013l-.015,0a.864.864,0,0,0-.136.038l-.017.006a.875.875,0,0,0-.125.06l-.017.011a.882.882,0,0,0-.112.081l-.006,0L66.412,26.775H60.079a6.447,6.447,0,0,0-6.44,6.44V68.637a6.447,6.447,0,0,0,6.44,6.44H82.395V85.243H71.786a.879.879,0,0,0,0,1.757H95.426a.879.879,0,1,0,0-1.757H84.152V75.077h22.316a6.447,6.447,0,0,0,6.44-6.44V33.215a6.447,6.447,0,0,0-6.44-6.44Zm-7.389-4.4V62.847H67.468V28.665h6a5.382,5.382,0,0,0,5.376-5.376V18.757H95.46a3.623,3.623,0,0,1,3.619,3.619ZM68.935,26.907l8.147-7.1v3.479a3.623,3.623,0,0,1-3.619,3.619Zm-8.856,1.625h5.632V62.847H55.4V33.215a4.688,4.688,0,0,1,4.683-4.683ZM106.468,73.32H60.079A4.688,4.688,0,0,1,55.4,68.637V64.6h55.754v4.032A4.688,4.688,0,0,1,106.468,73.32Zm4.683-10.472H100.836V28.532h5.632a4.688,4.688,0,0,1,4.683,4.683Z" fill="#283444"/>
      <g id="Group_2722" data-name="Group 2722" transform="translate(69.508 30.905)">
        <path id="Path_4824" data-name="Path 4824" d="M163.294,241.423H180.12c.715,0,1.294-.393,1.294-.879s-.579-.879-1.294-.879H163.294c-.715,0-1.294.393-1.294.879S162.579,241.423,163.294,241.423Z" transform="translate(-157 -220.963)" fill="#31b781"/>
        <path id="Path_4827" data-name="Path 4827" d="M166.979,283h-4.1a.879.879,0,0,0,0,1.757h4.1a.879.879,0,0,0,0-1.757Z" transform="translate(-162 -257.951)" fill="#31b781"/>
        <path id="Path_4828" data-name="Path 4828" d="M231.9,283H213.986c-.682,0-1.236.393-1.236.879s.553.879,1.236.879H231.9c.683,0,1.236-.393,1.236-.879S232.587,283,231.9,283Z" transform="translate(-205.318 -257.951)" fill="#31b781"/>
        <path id="Path_4830" data-name="Path 4830" d="M175.9,112.038a.879.879,0,0,0-.773,0l-5.858,2.866a.879.879,0,0,0-.493.789v5.483a5.237,5.237,0,0,0,.525,2.167,5.631,5.631,0,0,0,1.811,2.248l3.9,2.661a.879.879,0,0,0,.99,0l3.905-2.661a5.9,5.9,0,0,0,2.337-4.415V115.7a.879.879,0,0,0-.492-.789Zm4.592,9.138a4.142,4.142,0,0,1-1.569,2.963l-3.41,2.324-3.41-2.324A3.894,3.894,0,0,1,170.9,122.6a3.539,3.539,0,0,1-.362-1.427v-4.935l4.979-2.436,4.979,2.443Z" transform="translate(-160.787 -112.948)" fill="#31b781"/>
        <path id="Path_4831" data-name="Path 4831" d="M193.347,153.151a.879.879,0,1,0-1.227,1.258l1.769,1.726a.879.879,0,0,0,1.227,0l3.188-3.109a.879.879,0,1,0-1.227-1.258l-2.574,2.511Z" transform="translate(-180.483 -146.723)" fill="#31b781"/>
      </g>
    </g>
  </g>
</svg>
