<svg xmlns="http://www.w3.org/2000/svg" width="110" height="110" viewBox="0 0 110 110">
  <g id="business-getting-started-icon-3" transform="translate(-5320 -1996)">
    <g id="Ellipse_261" data-name="Ellipse 261" transform="translate(5320 1996)" fill="none" stroke="#edf0f5" stroke-width="2" stroke-dasharray="60">
      <circle cx="55" cy="55" r="55" stroke="none"/>
      <circle cx="55" cy="55" r="54" fill="none"/>
    </g>
    <g id="business-getting-started-icon-3-2" data-name="business-getting-started-icon-3" transform="translate(5345.688 2015.999)">
      <path id="Path_4832" data-name="Path 4832" d="M46.652,288.778V286.09a4.545,4.545,0,0,1,3.84-4.485,4.539,4.539,0,0,0-5.237,4.485v2.688a4.54,4.54,0,0,0,5.237,4.485,4.546,4.546,0,0,1-3.84-4.485Zm0,0" transform="translate(-38.657 -242.182)" fill="#31b781" opacity="0.15"/>
      <path id="Path_4833" data-name="Path 4833" d="M169.859,261.847v-3.072a5.312,5.312,0,0,1,4.606-5.258,5.3,5.3,0,0,0-6,5.258v3.072a5.3,5.3,0,0,0,6,5.258,5.312,5.312,0,0,1-4.606-5.258Zm0,0" transform="translate(-144.637 -218.028)" fill="#31b781" opacity="0.15"/>
      <path id="Path_4834" data-name="Path 4834" d="M133.241,382.66l0-.005a6.143,6.143,0,0,1,.713-.881,6.048,6.048,0,0,1,2.592-1.573c-.07-.076-.14-.153-.208-.232a6.038,6.038,0,0,0-3.783,1.8,6.143,6.143,0,0,0-.713.881l0,.005a6.036,6.036,0,0,0-1.012,3.356v9.145h1.4v-9.145a6.036,6.036,0,0,1,1.012-3.356Zm0,0" transform="translate(-112.269 -326.838)" fill="#31b781" opacity="0.15"/>
      <path id="Path_4835" data-name="Path 4835" d="M330.609,281.555a4.482,4.482,0,0,0-.7.054,4.546,4.546,0,0,1,3.84,4.485v2.688a4.546,4.546,0,0,1-3.84,4.485,4.541,4.541,0,0,0,5.238-4.485v-2.688a4.544,4.544,0,0,0-4.539-4.538Zm0,0" transform="translate(-283.511 -242.185)" fill="#31b781" opacity="0.15"/>
      <path id="Path_4836" data-name="Path 4836" d="M366.525,392.465c-.087.1-.179.2-.271.288a5.222,5.222,0,0,1,3.364,4.874v5.211h1.4v-5.211A5.219,5.219,0,0,0,366.525,392.465Zm0,0" transform="translate(-314.773 -337.587)" fill="#31b781" opacity="0.15"/>
      <path id="Path_4837" data-name="Path 4837" d="M156.461,248.455v3.072a6.983,6.983,0,0,0,13.965,0v-3.072a6.983,6.983,0,1,0-13.965,0Zm6.983-5.3a5.311,5.311,0,0,1,5.3,5.3v3.072a5.3,5.3,0,0,1-10.609,0v-3.072A5.311,5.311,0,0,1,163.444,243.15Zm0,0" transform="translate(-134.315 -207.707)" fill="#283444"/>
      <path id="Path_4838" data-name="Path 4838" d="M290.457,275.587v2.688a6.217,6.217,0,1,0,12.433,0v-2.688a6.217,6.217,0,1,0-12.433,0Zm6.216-4.538a4.544,4.544,0,0,1,4.539,4.538v2.688a4.539,4.539,0,1,1-9.077,0v-2.688A4.543,4.543,0,0,1,296.672,271.049Zm0,0" transform="translate(-249.574 -231.679)" fill="#283444"/>
      <path id="Path_4839" data-name="Path 4839" d="M50.584,370.031a4.37,4.37,0,0,1-6.9-.169.852.852,0,0,0-.7-.34,6.822,6.822,0,0,0-3.451,1.027,7.73,7.73,0,0,0-5.445-2.739c-.442-.027-.66.241-.892.525a5.113,5.113,0,0,1-8.067-.2.833.833,0,0,0-.7-.34,7.707,7.707,0,0,0-5.349,2.333c-.135.138-.262.281-.385.428a6.871,6.871,0,0,0-3.225-1.027,1,1,0,0,0-.861.5,4.37,4.37,0,0,1-6.9-.169.853.853,0,0,0-.7-.34A6.891,6.891,0,0,0,.313,376.41v6.05a.839.839,0,0,0,.839.839H16.885v2.233a.839.839,0,0,0,.839.839h22.81a.838.838,0,0,0,.839-.839V383.3H57.082a.839.839,0,0,0,.839-.839v-6.05a6.9,6.9,0,0,0-6.475-6.877,1,1,0,0,0-.862.5ZM1.991,381.621V376.41a5.248,5.248,0,0,1,4.677-5.184,6.05,6.05,0,0,0,9.121.022,5.174,5.174,0,0,1,1.977.706,7.714,7.714,0,0,0-.881,3.595v6.073Zm37.7,3.072H18.563v-9.144a6.034,6.034,0,0,1,1.012-3.356l0-.005a6.143,6.143,0,0,1,.713-.881,6.038,6.038,0,0,1,3.783-1.8,6.791,6.791,0,0,0,10.323.023,6.081,6.081,0,0,1,5.3,6.025Zm12.057-13.445a5.219,5.219,0,0,1,4.491,5.162v5.211H41.373v-6.073a7.707,7.707,0,0,0-.892-3.6,5.129,5.129,0,0,1,2.149-.718,6,6,0,0,0,4.415,2.084l.158,0a6.014,6.014,0,0,0,4.549-2.064Zm0,0" transform="translate(0 -316.37)" fill="#283444"/>
      <path id="Path_4840" data-name="Path 4840" d="M45.683,278.275v-2.688a6.217,6.217,0,1,0-12.433,0v2.688a6.217,6.217,0,1,0,12.433,0Zm-10.755,0v-2.688a4.539,4.539,0,1,1,9.077,0v2.688a4.539,4.539,0,1,1-9.077,0Zm0,0" transform="translate(-28.331 -231.679)" fill="#283444"/>
      <g id="Group_2723" data-name="Group 2723" transform="translate(15.694 0.001)">
        <path id="Path_4841" data-name="Path 4841" d="M136.651,7.343l-.082-.035A60.281,60.281,0,0,1,124.239.169a.84.84,0,0,0-1.007,0A60.27,60.27,0,0,1,110.9,7.307l-.083.036a.839.839,0,0,0-.508.771v7.3c0,4.723,2.257,8.871,6.527,12a23,23,0,0,0,6.443,3.3.842.842,0,0,0,.464,0,24.131,24.131,0,0,0,6.658-3.289c4.419-3.125,6.756-7.275,6.756-12v-7.3a.839.839,0,0,0-.509-.771Zm-1.169,8.072a11.855,11.855,0,0,1-3.407,8.366c-.456.44-1.206,1.158-1.474,1.375q-.536.443-1.128.866a23.2,23.2,0,0,1-5.951,3,21.955,21.955,0,0,1-5.691-2.964q-.545-.4-1.041-.818c-.39-.378-.843-.721-1.4-1.328a12.112,12.112,0,0,1-3.4-8.5V8.665a61.956,61.956,0,0,0,11.745-6.78,61.969,61.969,0,0,0,11.745,6.78Zm0,0" transform="translate(-110.313 -0.001)" fill="#31b781"/>
        <path id="Path_4847" data-name="Path 4847" d="M173.594,88.361a.839.839,0,1,0-1.186,1.186l2.849,2.849a.839.839,0,0,0,1.187,0l5.009-5.009a.839.839,0,1,0-1.187-1.186l-4.416,4.416Zm0,0" transform="translate(-163.506 -73.929)" fill="#31b781"/>
      </g>
      <path id="Path_4848" data-name="Path 4848" d="M17.228,392.568q-.123-.126-.239-.259a5.248,5.248,0,0,0-4.677,5.184V402.7h1.4v-5.211a5.252,5.252,0,0,1,3.517-4.925Zm0,0" transform="translate(-10.322 -337.453)" fill="#31b781" opacity="0.15"/>
    </g>
  </g>
</svg>
