<svg xmlns="http://www.w3.org/2000/svg" width="110" height="110" viewBox="0 0 110 110">
  <g id="students-getting-started-icon-1" transform="translate(-5320 -1996)">
    <g id="Ellipse_261" data-name="Ellipse 261" transform="translate(5320 1996)" fill="none" stroke="#edf0f5" stroke-width="2" stroke-dasharray="60">
      <circle cx="55" cy="55" r="55" stroke="none"/>
      <circle cx="55" cy="55" r="54" fill="none"/>
    </g>
    <g id="students-getting-started-icon-1-2" data-name="students-getting-started-icon-1" transform="translate(5317.668 2004.61)">
      <path id="Path_4871" data-name="Path 4871" d="M319.51,330.075a6.149,6.149,0,0,1-1.916-2.425,5.615,5.615,0,0,1-.57-2.272v-7.5l7.379-3.61-1.513-.742-7.726,3.78v7.5a5.615,5.615,0,0,0,.57,2.272,6.153,6.153,0,0,0,1.916,2.425l5.24,3.57.51-.348Z" transform="translate(-249.219 -258.905)" fill="#31b781" opacity="0.15"/>
      <path id="Path_4872" data-name="Path 4872" d="M25.6,21.066l4.849,1.865v3.536a.855.855,0,0,0,.21.559V30.6A3.222,3.222,0,0,0,28.553,32.9a4.045,4.045,0,0,0,2.514,4.75v.917a13.285,13.285,0,0,0,8.247,12.278l0,1.486a1.837,1.837,0,0,1-.534,1.293l-.407.407c-2.167.7-3.375,1.109-3.584,1.218a4.446,4.446,0,0,0-1.241.94l-2.846,1.215-.047.022a7.568,7.568,0,0,0-4.133,6.1c0,.024,0,.048,0,.072v8.538a.858.858,0,0,0,.858.858H59.537V71.285H49.471c1.928-3.032,6.52-10.269,7.177-11.456a3.041,3.041,0,0,0,.38-1.268l.973.415c.1.053.208.109.309.168l.866-1.483c-.141-.082-.285-.161-.429-.233l-.047-.022-2.375-1.014a4.313,4.313,0,0,0-1.391-1.13A32.383,32.383,0,0,0,51.022,54.1l-.395-.395a1.812,1.812,0,0,1-.534-1.29v-1.9A13.281,13.281,0,0,0,57.6,38.57v-.917a4.045,4.045,0,0,0,2.514-4.75,3.324,3.324,0,0,0-.229-.638,2.316,2.316,0,1,0,2.04-4.111V21.471l1.053-.405c1.1-.425,1.269-1.1,1.269-1.471s-.165-1.047-1.269-1.471l-16.637-6.4a6.5,6.5,0,0,0-4.1,0L25.6,18.123c-1.1.425-1.269,1.1-1.269,1.471s.165,1.047,1.269,1.471Zm16.637,6.4a4.305,4.305,0,0,0,.565.169,39.711,39.711,0,0,1-10.635-1.794v-2.25Zm13.956-1.624a39.776,39.776,0,0,1-10.38,1.784,4.277,4.277,0,0,0,.525-.16l9.855-3.792Zm-.218,1.86v2.97a25.833,25.833,0,0,1-11.367-1.3A41.9,41.9,0,0,0,55.975,27.7Zm-23.6,0q.639.189,1.285.358a3.569,3.569,0,0,0-.39,1.417l-.126,2.07-.677-.348a.175.175,0,0,1-.092-.126Zm3.194,29.084c.21-.089,1.352-.471,2.587-.874l2.094,12.178c-2.179-3.424-5.2-8.186-5.695-9.089a1.254,1.254,0,0,1-.12-1,2.2,2.2,0,0,1,1.133-1.216Zm-7.332,6.859A5.841,5.841,0,0,1,31.4,58.977l1.263-.539a3.017,3.017,0,0,0,.388,1.394c.657,1.188,5.263,8.422,7.2,11.454H28.239Zm14.3,7.643L40.734,60.76a14.63,14.63,0,0,0,8.068-.036L47.17,71.285ZM54.154,56.8A2.184,2.184,0,0,1,55.266,58a1.255,1.255,0,0,1-.121,1c-.506.914-3.587,5.793-5.765,9.226l1.9-12.266C52.629,56.333,53.9,56.7,54.154,56.8Zm-4.742-1.87.248.248L49.1,58.822a12.961,12.961,0,0,1-8.689.035l-.649-3.775L40,54.842a3.565,3.565,0,0,0,1.037-2.511l0-.911a13.29,13.29,0,0,0,7.342-.216v1.217a3.518,3.518,0,0,0,1.037,2.5ZM56.59,36.154a.858.858,0,0,0-.71.846v1.571a11.548,11.548,0,0,1-23.1,0V37a.858.858,0,0,0-.71-.846,2.326,2.326,0,0,1-1.853-2.843,1.485,1.485,0,0,1,.887-1.047,1.885,1.885,0,0,0,.577.459l1.5.769a1.115,1.115,0,0,0,1.62-.9.077.077,0,0,1,0-.016l.182-2.995a1.855,1.855,0,0,1,.454-1.106,41.878,41.878,0,0,0,5.013.74,23.724,23.724,0,0,0,12.616,3.342,24.349,24.349,0,0,0,3.914-.284.854.854,0,0,0,.275-.1,1.51,1.51,0,0,1,1.185,1.142,2.326,2.326,0,0,1-1.853,2.842Zm4.6-5.2a.6.6,0,1,1,.6-.6.6.6,0,0,1-.6.6Zm-.981-2.7a2.309,2.309,0,0,0-1.184,2.907,3.269,3.269,0,0,0-1.328-.654V27.036a.856.856,0,0,0,.218-.569V23.014l2.294-.883Zm-17.35-14.93a4.776,4.776,0,0,1,2.868,0l16.3,6.27-.895.344c-.02,0-.04,0-.06,0a.855.855,0,0,0-.619.264L45.721,25.865a4.777,4.777,0,0,1-2.868,0l-16.3-6.27Z" fill="#283444"/>
      <g id="Group_2727" data-name="Group 2727" transform="translate(56.716 47.48)">
        <path id="Path_4873" data-name="Path 4873" d="M267.622,263.624a16.955,16.955,0,1,0,16.955,16.955A16.955,16.955,0,0,0,267.622,263.624Zm0,32.193a15.238,15.238,0,1,1,15.238-15.238A15.238,15.238,0,0,1,267.622,295.817Z" transform="translate(-250.667 -263.624)" fill="#31b781"/>
        <path id="Path_4874" data-name="Path 4874" d="M321.573,305.148l-8.585-4.212a.858.858,0,0,0-.755,0l-8.585,4.2a.858.858,0,0,0-.481.771v8.036a7.246,7.246,0,0,0,.73,3,7.807,7.807,0,0,0,2.507,3.12l5.723,3.9a.858.858,0,0,0,.967,0l5.723-3.9a8.164,8.164,0,0,0,3.237-6.116v-8.025a.858.858,0,0,0-.48-.77Zm-1.237,8.795a6.466,6.466,0,0,1-2.486,4.7l-5.24,3.57-5.24-3.57a6.149,6.149,0,0,1-1.916-2.425,5.615,5.615,0,0,1-.57-2.272v-7.5l7.726-3.78,7.726,3.792Z" transform="translate(-295.655 -295.522)" fill="#31b781"/>
        <path id="Path_4875" data-name="Path 4875" d="M339.237,362.475a.859.859,0,0,0-1.2,1.229l2.593,2.529a.858.858,0,0,0,1.2,0l4.672-4.556a.859.859,0,0,0-1.2-1.229l-4.073,3.971Z" transform="translate(-325.315 -346.385)" fill="#31b781"/>
      </g>
    </g>
  </g>
</svg>
