<svg xmlns="http://www.w3.org/2000/svg" width="110" height="110" viewBox="0 0 110 110">
  <g id="students-getting-started-icon-2" transform="translate(-5320 -1996)">
    <g id="Ellipse_261" data-name="Ellipse 261" transform="translate(5320 1996)" fill="none" stroke="#edf0f5" stroke-width="2" stroke-dasharray="60">
      <circle cx="55" cy="55" r="55" stroke="none"/>
      <circle cx="55" cy="55" r="54" fill="none"/>
    </g>
    <g id="students-getting-started-icon-2-2" data-name="students-getting-started-icon-2" transform="translate(5287.188 2006)">
      <g id="Group_2724" data-name="Group 2724" transform="translate(61.519 11.707)">
        <path id="Path_4849" data-name="Path 4849" d="M132.757,29.135V26.852a4.86,4.86,0,0,1,3.429-4.638,4.852,4.852,0,0,0-6.274,4.638v2.283a4.852,4.852,0,0,0,6.274,4.638A4.86,4.86,0,0,1,132.757,29.135Z" transform="translate(-121.645 -22)" fill="#31b781" opacity="0.15"/>
        <path id="Path_4850" data-name="Path 4850" d="M74.688,157.114c0-.144-.03-14.395-.03-14.591a5.075,5.075,0,0,1,5.074-5.074H76.887a5.075,5.075,0,0,0-5.075,5.074c0,.2.03,14.447.03,14.591a2.3,2.3,0,0,0,2.294,2.3h.036a2.207,2.207,0,0,0,1.374-.508A2.291,2.291,0,0,1,74.688,157.114Z" transform="translate(-71.812 -121.023)" fill="#31b781" opacity="0.15"/>
        <path id="Path_4851" data-name="Path 4851" d="M120.228,299.689l-.844-28.562-.019-1.228a.854.854,0,0,0-.854-.841H118.5a.854.854,0,0,0-.847.854,2.409,2.409,0,0,1-1.1,2.027l.82,27.75a.915.915,0,0,0,.911.8h2.846a.915.915,0,0,1-.911-.8Z" transform="translate(-110.195 -233.908)" fill="#31b781" opacity="0.15"/>
      </g>
      <path id="Path_4852" data-name="Path 4852" d="M124.472,10a6.567,6.567,0,0,0-6.559,6.559v2.283a6.559,6.559,0,1,0,13.118,0V16.559A6.566,6.566,0,0,0,124.472,10Zm4.852,8.841a4.852,4.852,0,1,1-9.7,0V16.559a4.852,4.852,0,1,1,9.7,0Z" transform="translate(-49.835 0)" fill="#283444"/>
      <path id="Path_4853" data-name="Path 4853" d="M83.764,125.484c-.159-.016-1.916-.028-5.223-.034h0a.854.854,0,0,0-.74.429l-2.943,5.13-2.787-5.114a.854.854,0,0,0-.75-.445H66.594a6.782,6.782,0,0,0-6.782,6.781c0,.2.028,14.007.03,14.594a4.006,4.006,0,0,0,4,4h.046a3.916,3.916,0,0,0,2.327-.8L67,176.6c0,.02,0,.039,0,.058a2.616,2.616,0,0,0,2.613,2.368H80.144a2.615,2.615,0,0,0,2.613-2.374c0-.019,0-.039,0-.058l.731-26.52a4,4,0,0,0,6.34-3.25V132.87a6.782,6.782,0,0,0-6.068-7.386Zm4.365,7.259a.829.829,0,0,0,0,.085V146.82a2.3,2.3,0,1,1-4.592.082v-.1a.854.854,0,0,0-.854-.839H82.67a.854.854,0,0,0-.847.854c0,.042,0,.084,0,.125l.017,1.012-.787,28.552a.914.914,0,0,1-.911.806H69.617a.915.915,0,0,1-.911-.8l-.844-28.562-.019-1.228a.854.854,0,0,0-.854-.841h-.007a.854.854,0,0,0-.847.854,2.346,2.346,0,0,1-2.258,2.381h-.036a2.3,2.3,0,0,1-2.294-2.294c0-.144-.03-14.395-.03-14.591a5.075,5.075,0,0,1,5.074-5.074h4.22l3.275,6.009a.854.854,0,0,0,1.49.016l3.456-6.024c1.807,0,4.292.014,4.575.026a5.079,5.079,0,0,1,4.521,5.558Z" transform="translate(0 -99.023)" fill="#283444"/>
      <path id="Path_4854" data-name="Path 4854" d="M354.579,151.511a.854.854,0,0,0-.854.854v1.9H343.713V144.25h10.012v.629a.854.854,0,0,0,1.707,0V143.4a.854.854,0,0,0-.854-.854H342.86a.854.854,0,0,0-.854.854v11.719a.854.854,0,0,0,.854.854h11.719a.854.854,0,0,0,.854-.854v-2.752A.854.854,0,0,0,354.579,151.511Z" transform="translate(-242.044 -113.685)" fill="#31b781"/>
      <path id="Path_4855" data-name="Path 4855" d="M386.656,165.024l-6.459,4.862-1.213-2.237a.854.854,0,1,0-1.5.814l1.685,3.108a.854.854,0,0,0,1.264.275l7.252-5.458a.854.854,0,1,0-1.027-1.364Z" transform="translate(-272.385 -132.82)" fill="#283444"/>
      <path id="Path_4856" data-name="Path 4856" d="M354.579,13.19a.854.854,0,0,0,.854-.854V10.854a.854.854,0,0,0-.854-.854H342.86a.854.854,0,0,0-.854.854V22.573a.854.854,0,0,0,.854.854h11.719a.854.854,0,0,0,.854-.854V19.821a.854.854,0,0,0-1.707,0v1.9H343.713V11.707h10.012v.629A.854.854,0,0,0,354.579,13.19Z" transform="translate(-242.044)" fill="#31b781"/>
      <path id="Path_4857" data-name="Path 4857" d="M386.656,32.478,380.2,37.34,378.984,35.1a.854.854,0,1,0-1.5.814l1.685,3.108a.854.854,0,0,0,1.264.275l7.252-5.459a.854.854,0,0,0-1.027-1.364Z" transform="translate(-272.385 -19.132)" fill="#283444"/>
      <path id="Path_4858" data-name="Path 4858" d="M354.579,275.086H342.86a.854.854,0,0,0-.854.854v11.719a.854.854,0,0,0,.854.854h11.719a.854.854,0,0,0,.854-.854V275.94A.854.854,0,0,0,354.579,275.086Zm-.854,11.719H343.713V276.793h10.012Z" transform="translate(-242.044 -227.371)" fill="#31b781"/>
      <path id="Path_4859" data-name="Path 4859" d="M354.579,407.629H342.86a.854.854,0,0,0-.854.854V420.2a.854.854,0,0,0,.854.854h11.719a.854.854,0,0,0,.854-.854V408.483A.854.854,0,0,0,354.579,407.629Zm-.854,11.719H343.713V409.336h10.012Z" transform="translate(-242.044 -341.056)" fill="#31b781"/>
    </g>
  </g>
</svg>
