<?xml version="1.0"?>
<svg xmlns="http://www.w3.org/2000/svg" width="20" height="20" viewBox="0 0 20 20">
  <g id="profile-badge" transform="translate(0 0)">
    <ellipse id="Ellipse_260" data-name="Ellipse 260" cx="6.258" cy="6.149" rx="6.258" ry="6.149" transform="translate(3.737 3.868)" fill="#fff"/>
    <path id="Path_4598" data-name="Path 4598" d="M18.387,7.623,18.661,5,16.25,3.927a.348.348,0,0,1-.177-.177L15,1.339l-2.625.274a.35.35,0,0,1-.24-.065L10,0,7.863,1.549a.351.351,0,0,1-.24.065L5,1.339,3.926,3.75a.345.345,0,0,1-.177.176L1.339,5l.274,2.624a.349.349,0,0,1-.064.24L0,10l1.548,2.137a.349.349,0,0,1,.064.24L1.339,15,3.75,16.074a.348.348,0,0,1,.177.177L5,18.662l2.625-.274.035,0a.345.345,0,0,1,.2.067L10,20l2.137-1.548a.347.347,0,0,1,.24-.065L15,18.662l1.072-2.411a.346.346,0,0,1,.177-.176L18.661,15l-.274-2.624a.347.347,0,0,1,.064-.24L20,10,18.452,7.864a.347.347,0,0,1-.064-.24Zm-3.344-.089L8.16,14.418a.348.348,0,0,1-.492,0L4.717,11.466a.348.348,0,0,1,0-.492l.984-.98a.348.348,0,0,1,.491,0l1.723,1.719,5.654-5.654a.348.348,0,0,1,.492,0l.984.984a.348.348,0,0,1,0,.492Zm0,0" fill="#31b781"/>
  </g>
</svg>
