<svg xmlns="http://www.w3.org/2000/svg" width="15" height="14" viewBox="0 0 15 14" fill="none">
<path fill-rule="evenodd" clip-rule="evenodd" d="M3.08007 13.7889H0.0700684V4.12891H3.08007V13.7889ZM1.54 2.94C0.63 2.94 0 2.31 0 1.47C0 0.63 0.63 0 1.61 0C2.59 0 3.15 0.63 3.15 1.47C3.15 2.31 2.59 2.94 1.54 2.94ZM14.0017 13.7919H10.9917V8.47188C10.9917 7.21187 10.5717 6.37187 9.45172 6.37187C8.61172 6.37187 8.12172 6.93187 7.91172 7.49187C7.84172 7.70187 7.84172 7.98187 7.84172 8.26188V13.7919H4.83172V7.21187C4.83172 6.02187 4.76172 5.04187 4.76172 4.13188H7.35172L7.49172 5.46187H7.56172C7.98172 4.83187 8.89172 3.92188 10.5017 3.92188C12.4617 3.92188 13.9317 5.25187 13.9317 8.05188V13.7919H14.0017Z" fill="#001E00"/>
</svg>