<svg xmlns="http://www.w3.org/2000/svg" width="781.425" height="129.975" viewBox="0 0 781.425 129.975">
  <g id="Gradskills-01-white" transform="translate(-4.475 -4.85)">
    <g id="Group_1" data-name="Group 1">
      <path id="Path_1" data-name="Path 1" d="M302.6,44.6c-8.9,0-15.4,2.5-19.4,7.4-4,5-6,11.7-6,20.3a40.348,40.348,0,0,0,1.5,11.4,26.924,26.924,0,0,0,4.4,8.8,18.925,18.925,0,0,0,7.4,5.7,23.983,23.983,0,0,0,10.3,2c2.1,0,4,0,5.5-.1a22.969,22.969,0,0,0,4-.5V70.1h19.2v42.2a69.63,69.63,0,0,1-11.1,2.9,99.944,99.944,0,0,1-18.8,1.5,48.131,48.131,0,0,1-17.4-3,35.564,35.564,0,0,1-13.3-8.6,38.273,38.273,0,0,1-8.5-13.9,54.934,54.934,0,0,1-3-18.8,50.587,50.587,0,0,1,3.3-18.9,40.871,40.871,0,0,1,9.1-14,39.607,39.607,0,0,1,13.6-8.7,46.248,46.248,0,0,1,16.7-3,72.362,72.362,0,0,1,10.9.8,67.519,67.519,0,0,1,8.4,1.8,33.822,33.822,0,0,1,5.8,2.2c1.5.7,2.6,1.3,3.3,1.7L323,49.7a46.878,46.878,0,0,0-9-3.6A41.88,41.88,0,0,0,302.6,44.6Z" fill="#fff"/>
      <path id="Path_2" data-name="Path 2" d="M379,66.6c-1.6-.4-3.6-.8-5.8-1.3a39.739,39.739,0,0,0-7.1-.7,34.292,34.292,0,0,0-4.1.3,17.483,17.483,0,0,0-3.6.7V115H340V53.8c3.3-1.1,7.1-2.2,11.6-3.3A68.328,68.328,0,0,1,366.5,49c1,0,2.2.1,3.6.2s2.8.3,4.2.5,2.8.5,4.2.7a22.8,22.8,0,0,1,3.6,1Z" fill="#fff"/>
      <path id="Path_3" data-name="Path 3" d="M407.8,48.7a43.242,43.242,0,0,1,13.5,1.8,21.013,21.013,0,0,1,8.7,5.3,19.163,19.163,0,0,1,4.6,8.4A41.122,41.122,0,0,1,436,75.1v38.1c-2.6.6-6.3,1.2-10.9,2a102.548,102.548,0,0,1-17,1.2,56.536,56.536,0,0,1-11.4-1.1,24,24,0,0,1-8.8-3.6,17.336,17.336,0,0,1-5.7-6.6,22.825,22.825,0,0,1-2-10,18.943,18.943,0,0,1,2.3-9.6,17.53,17.53,0,0,1,6.1-6.3,26.8,26.8,0,0,1,8.7-3.4,49.019,49.019,0,0,1,10.2-1,57.834,57.834,0,0,1,6.3.3,33.958,33.958,0,0,1,4.5.8V74.2a10.108,10.108,0,0,0-2.8-7.5c-1.9-1.9-5.2-2.8-9.8-2.8a56.158,56.158,0,0,0-9.2.7,45.86,45.86,0,0,0-7.9,1.9l-2.3-14.8c1.1-.3,2.4-.7,4-1,1.6-.4,3.3-.7,5.2-1s3.9-.5,6-.7Q404.5,48.7,407.8,48.7Zm1.4,53.6c1.8,0,3.5,0,5.2-.1a29.494,29.494,0,0,0,3.9-.4V87.9a30.03,30.03,0,0,0-3.3-.5,29.551,29.551,0,0,0-4.1-.2,39.077,39.077,0,0,0-4.9.3,11.738,11.738,0,0,0-4,1.2,7.68,7.68,0,0,0-2.7,2.3,6.2,6.2,0,0,0-1,3.7c0,2.9,1,4.9,2.9,6A18.017,18.017,0,0,0,409.2,102.3Z" fill="#fff"/>
      <path id="Path_4" data-name="Path 4" d="M503.4,113a47.6,47.6,0,0,1-5.7,1.4c-2.1.5-4.4.8-6.7,1.2-2.3.3-4.7.6-7.1.8s-4.7.3-6.9.3a42.465,42.465,0,0,1-14.3-2.3,29.546,29.546,0,0,1-10.6-6.7,28.049,28.049,0,0,1-6.6-10.6,40.689,40.689,0,0,1-2.3-14,48.226,48.226,0,0,1,2-14.2,30.935,30.935,0,0,1,5.7-10.8,24.983,24.983,0,0,1,9-6.8A29.512,29.512,0,0,1,472.1,49a28.43,28.43,0,0,1,6.8.7,40.173,40.173,0,0,1,6.1,2.1V22.6l18.3-3V113ZM462,82.3c0,5.7,1.3,10.2,3.8,13.6s6.3,5.2,11.3,5.2c1.6,0,3.2-.1,4.5-.2,1.4-.1,2.5-.3,3.4-.4V67.1a13.582,13.582,0,0,0-4.5-1.8,20.972,20.972,0,0,0-5.6-.7Q462,64.45,462,82.3Z" fill="#fff"/>
      <path id="Path_5" data-name="Path 5" d="M539,100.4a25.49,25.49,0,0,0,6.7-.7,11.771,11.771,0,0,0,4.2-1.8,5.873,5.873,0,0,0,2.2-2.8,10.46,10.46,0,0,0,.6-3.6,8.106,8.106,0,0,0-3.9-6.9q-3.9-2.7-13.5-6c-2.8-1-5.6-2.1-8.4-3.4a32.037,32.037,0,0,1-7.5-4.8,23.426,23.426,0,0,1-5.4-7,21.741,21.741,0,0,1-2.1-10,24.229,24.229,0,0,1,2.2-10.6,24.671,24.671,0,0,1,6.3-8.1,29.393,29.393,0,0,1,9.8-5.1,43.928,43.928,0,0,1,13-1.8,54.768,54.768,0,0,1,14.9,1.8,48.94,48.94,0,0,1,10.3,4.1l-5.5,15.1a64.762,64.762,0,0,0-7.9-3.3,35.593,35.593,0,0,0-10.5-1.4c-4.6,0-7.9.6-9.9,1.9a6.429,6.429,0,0,0-3,5.8,6.668,6.668,0,0,0,1.1,3.9,10.879,10.879,0,0,0,3.1,2.9,22.864,22.864,0,0,0,4.7,2.3c1.8.7,3.7,1.4,5.8,2.2A123.113,123.113,0,0,1,557.9,68a31.933,31.933,0,0,1,8.2,5.6,19.949,19.949,0,0,1,4.9,7.5,29.737,29.737,0,0,1,1.6,10.5c0,8-2.8,14.1-8.4,18.5s-14,6.6-25.2,6.6a62.847,62.847,0,0,1-10.2-.7,71.466,71.466,0,0,1-8.1-1.7q-3.45-1.05-6-2.1a27.242,27.242,0,0,1-4.2-2.1l5.4-15.2a53.752,53.752,0,0,0,9.4,3.8A44.889,44.889,0,0,0,539,100.4Z" fill="#fff"/>
      <path id="Path_6" data-name="Path 6" d="M598.2,73.6c1.8-2,3.7-4,5.6-6.1s3.8-4.2,5.6-6.3,3.5-4.1,5.1-5.9c1.6-1.9,3-3.5,4.1-4.9h21.8c-4.3,5-8.6,9.8-12.7,14.3s-8.7,9.2-13.6,14a82.933,82.933,0,0,1,7.6,7.9c2.6,3.1,5.2,6.3,7.6,9.5,2.5,3.3,4.7,6.6,6.8,9.8,2,3.3,3.8,6.3,5.2,9H620.2c-1.3-2.1-2.8-4.5-4.5-7.1s-3.5-5.2-5.3-7.8q-2.85-3.9-6-7.5a49.049,49.049,0,0,0-6.2-6v28.3H579.9V22.6l18.3-3v54Z" fill="#fff"/>
      <path id="Path_7" data-name="Path 7" d="M665,31.7a9.838,9.838,0,0,1-3.3,7.9,11.672,11.672,0,0,1-15.4,0,9.977,9.977,0,0,1-3.3-7.9,9.977,9.977,0,0,1,3.3-7.9,11.672,11.672,0,0,1,15.4,0A9.977,9.977,0,0,1,665,31.7Zm-1.7,83.4H645V50.4h18.3Z" fill="#fff"/>
      <path id="Path_8" data-name="Path 8" d="M700.1,116.3a49.4,49.4,0,0,1-13-1.7,20.762,20.762,0,0,1-7.9-4.5,15.156,15.156,0,0,1-3.9-7,37.339,37.339,0,0,1-1-9.3V22.6l18.3-3V90a19.979,19.979,0,0,0,.4,4.4,7.055,7.055,0,0,0,1.4,3.3,7.814,7.814,0,0,0,3,2.2,16.9,16.9,0,0,0,5.3,1.1Z" fill="#fff"/>
      <path id="Path_9" data-name="Path 9" d="M732.8,116.3a49.4,49.4,0,0,1-13-1.7,20.762,20.762,0,0,1-7.9-4.5,15.156,15.156,0,0,1-3.9-7,37.339,37.339,0,0,1-1-9.3V22.6l18.3-3V90a19.979,19.979,0,0,0,.4,4.4,7.055,7.055,0,0,0,1.4,3.3,7.814,7.814,0,0,0,3,2.2,16.9,16.9,0,0,0,5.3,1.1Z" fill="#fff"/>
      <path id="Path_10" data-name="Path 10" d="M758.3,101.9c3.4,0,5.7-.3,7.1-1a3.806,3.806,0,0,0,2.1-3.8q0-2.25-2.7-3.9a44.112,44.112,0,0,0-8.2-3.7q-4.35-1.65-7.8-3.3a23.559,23.559,0,0,1-6-4.1,17.261,17.261,0,0,1-3.8-5.7,21.207,21.207,0,0,1-1.4-8A17.286,17.286,0,0,1,744.4,54c4.5-3.5,10.7-5.3,18.6-5.3a59.393,59.393,0,0,1,11.3,1,53.872,53.872,0,0,1,8.6,2.3l-3.2,14.3c-2.1-.7-4.4-1.4-6.9-2a36.062,36.062,0,0,0-8.4-.9c-5.7,0-8.6,1.6-8.6,4.8a4.476,4.476,0,0,0,.4,2,3.83,3.83,0,0,0,1.5,1.7,18.729,18.729,0,0,0,3,1.7c1.3.6,2.9,1.3,4.9,2a91.519,91.519,0,0,1,10,4.4,22.4,22.4,0,0,1,6.2,4.7,14.334,14.334,0,0,1,3.2,5.6,25.013,25.013,0,0,1,.9,7.1c0,6.4-2.4,11.2-7.2,14.5s-11.6,4.9-20.3,4.9a57.5,57.5,0,0,1-14.3-1.5,49.914,49.914,0,0,1-7.9-2.5L739,98a62.588,62.588,0,0,0,9.6,2.9A46.323,46.323,0,0,0,758.3,101.9Z" fill="#fff"/>
    </g>
    <g id="logo">
      <path id="Path_11" data-name="Path 11" d="M117.9,95.4,71.3,112.3a3.4,3.4,0,0,0,0,6.4L113.7,134a14.964,14.964,0,0,0,9.8,0l42.4-15.3a3.4,3.4,0,0,0,0-6.4L119.3,95.4A1.7,1.7,0,0,0,117.9,95.4Z" fill="#249d6c"/>
      <path id="Path_12" data-name="Path 12" d="M117.9,52.2,39,80.8a3.4,3.4,0,0,0,0,6.4l74.7,27a14.964,14.964,0,0,0,9.8,0l74.7-27a3.4,3.4,0,0,0,0-6.4L119.3,52.3A2.2,2.2,0,0,0,117.9,52.2Z" fill="#31b781"/>
      <path id="Path_13" data-name="Path 13" d="M114.3,5.6,6.5,44.6a3.018,3.018,0,0,0,0,5.7l107.8,39a12.99,12.99,0,0,0,8.7,0l107.8-39a3.018,3.018,0,0,0,0-5.7L123,5.6A12.99,12.99,0,0,0,114.3,5.6Z" fill="#4cd49d"/>
    </g>
  </g>
</svg>
