<svg xmlns="http://www.w3.org/2000/svg" width="14" height="12" viewBox="0 0 14 12" fill="none">
<path fill-rule="evenodd" clip-rule="evenodd" d="M12.6 2.8C12.6 2.94 12.6 3.08 12.6 3.15C12.6 6.93 9.73 11.34 4.41 11.34C2.8 11.34 1.26 10.85 0 10.08C0.21 10.08 0.49 10.15 0.7 10.15C2.03 10.15 3.29 9.66 4.27 8.89C3.01 8.89 1.96 8.05 1.61 6.93C1.82 6.93 1.96 7 2.17 7C2.45 7 2.73 7 2.94 6.93C1.61 6.65 0.7 5.53 0.7 4.13C0.7 4.13 0.7 4.13 0.7 4.06C0.7 4.27 1.47 4.41 1.96 4.41C1.19 3.92 0.63 3.01 0.63 2.03C0.63 1.47 0.77 0.98 1.05 0.56C2.45 2.31 4.55 3.43 7 3.57C6.86 3.29 6.79 3.08 6.79 2.87C6.79 1.26 8.05 0 9.66 0C10.5 0 11.2 0.35 11.76 0.91C12.39 0.77 13.02 0.56 13.58 0.21C13.37 0.91 12.88 1.47 12.32 1.82C12.88 1.75 13.44 1.61 14 1.4C13.58 1.89 13.16 2.38 12.6 2.8Z" fill="#001E00"/>
</svg>